<svg id="Layer_1" data-name="Layer 1" xmlns="http://www.w3.org/2000/svg" viewBox="0 0 223.44 123.97"><defs><style>.cls-1{fill:#2563eb;}</style></defs><path class="cls-1" d="M900.4,1020.12h39.52c-4.86-26.21-9.63-51.89-14.49-78,4.74,0,9.15-.08,13.56,0,41.62.88,83.25,1.85,124.87,2.6,3.53.06,5.07,1.1,5.85,4.46,1.2,5.22,3,10.32,4.2,15.54.64,2.69,1.78,3.57,4.59,3.42,13.32-.67,26.65-1.13,40-1.65,1.61-.06,3.22,0,5.37,0-2.12,6.48-4.1,12.7-6.19,18.88-6.84,20.22-13.81,40.39-20.48,60.66-1.2,3.65-2.69,5.35-6.76,5.71-18.36,1.64-36.69,3.65-55,5.57-27.76,2.91-55.51,5.88-83.27,8.71a6.63,6.63,0,0,1-4.69-1.17c-15.36-14.26-30.58-28.67-45.83-43A14.27,14.27,0,0,1,900.4,1020.12Zm51.34,42.77c3-.28,5.42-.49,7.87-.74q41.43-4.34,82.85-8.67c16-1.67,32-3.35,47.93-4.93a3.68,3.68,0,0,0,3.68-2.89c7-20.82,14-41.6,21.06-62.4,1.5-4.45,2.93-8.92,4.51-13.71-2,0-3.51,0-5,0-24.27,1-48.54,2-72.82,2.87-8,.3-8,.2-10.86-7.18a50.53,50.53,0,0,1-2.13-5.59c-.59-2.26-1.88-2.81-4.06-2.73-15.06.56-30.12,1.07-45.19,1.44-2.33.06-3.27.93-3.73,3.09-1.35,6.21-2.82,12.4-4.3,18.59C965,1007.46,958.45,1034.87,951.74,1062.89Zm-1.56-88.13c5.94,0,11.41-.08,16.87,0a2.88,2.88,0,0,0,3.34-2.62c1-4.63,2.19-9.23,3.22-13.86.44-2,1.34-2.84,3.54-2.89q24.87-.61,49.71-1.53c2.33-.09,3.39.76,4.09,2.79,1.23,3.54,2.45,7.09,4,10.49a4.27,4.27,0,0,0,3.08,2.22c10.59-.19,21.18-.61,31.77-1a6.65,6.65,0,0,0,1.59-.44,4.14,4.14,0,0,0,0-1c-1.11-4.09-2.26-8.17-3.37-12.27-1.87-6.87-1.87-6.83-9-7L933.87,945c-1.45,0-2.9,0-4.86,0,6.83,36.66,13.56,72.83,20.29,109l.88-.12Z" transform="translate(-900.4 -942.04)"/></svg>