<svg id="Layer_1" data-name="Layer 1" xmlns="http://www.w3.org/2000/svg" viewBox="0 0 443.64 450.49"><defs><style>.cls-1{fill:#f1f4f7;}.cls-2{fill:#989fad;}.cls-3{fill:#99a0ae;}.cls-4{fill:#fefefe;}.cls-5{fill:#c9ced7;}.cls-6{fill:#e0e3e9;}.cls-7{fill:#99a0ad;}.cls-8{fill:#9aa0ae;}.cls-9{fill:#9ca3b0;}.cls-10{fill:#9ba1af;}.cls-11{fill:#9aa1af;}</style></defs><path class="cls-1" d="M935.14,1158a106.83,106.83,0,0,1-15.44,13.32,232.63,232.63,0,0,1-39.82,24.16,224.24,224.24,0,0,1-58.54,18.1,212.19,212.19,0,0,1-46.78,2.77,224.06,224.06,0,0,1-51.57-8.72c-7.51-2.25-14.76-5.2-22.21-7.6-.15-1.93,1.55-2,2.66-2.55,2.43-1.22,5.14-1.67,8.3-2.57a11,11,0,0,0-4.65-1.3c-12.32-1.73-18.48-7.61-20.81-19.91a1.51,1.51,0,0,0-.68-1.16c-.58,3.09-.56,6.2-1.62,9-1.16,3.1-1.72,6.76-5.72,7.83-4.07-2.6-8.09-5.28-12.21-7.78A202.35,202.35,0,0,1,620.29,1143a219.29,219.29,0,0,1-46-79.93,227.43,227.43,0,0,1-9.26-43.95,205.9,205.9,0,0,1-1.23-35,226.56,226.56,0,0,1,8.52-50.83,224.94,224.94,0,0,1,62.35-101,221.2,221.2,0,0,1,120.06-56.87,216.15,216.15,0,0,1,41.27-2A220.06,220.06,0,0,1,848,782.19c3.81,1.14,7.45,3.22,11.63,2.95,2,.25,2.08,2,2.43,3.33,1.65,6.38.36,12.34-2.78,18-.64,1.15-1.81,2.07-1.67,4.29,10.69-9.45,21.78-12,33.78-2.66-1.31-3.8-5.9-5.53-5.08-10,5.21,1.23,9.33,4.59,13.77,7.24a213.75,213.75,0,0,1,47.4,38.35,223,223,0,0,1,31.7,43.59,218.57,218.57,0,0,1,21.45,54.29,229.56,229.56,0,0,1,5.91,37.75,202,202,0,0,1,.42,26.48c-1,17.33-3.51,34.49-8.69,51.16-1.44,4.63-2.61,9.34-4.61,13.78-1.19,2.62-.59,5.41-.84,8.12-1.85-.43-1.58-2-1.73-3.31-3.6-31.23-20.67-52.13-49.26-64.16-4.84-2-5.45-2.61-5.45-8,0-27.32-.34-54.64.14-82,.21-11.88-9.1-20.72-20.52-21.21-6.31-.27-6.31-.31-6.61-6.29-.49-9.54-8.81-17.84-18.48-18.38-2.87-.16-5.74,0-8.61,0-5.87,0-6.33-.33-7.51-6a29.47,29.47,0,0,0-8.6-15.82c-9.2-8.78-23-8.09-31.09,1.82a32.25,32.25,0,0,0-6.65,14.48c-.93,4.81-1.65,5.46-6.37,5.49q-13.86.09-27.71,0c-4.58,0-4.91-.37-5.74-5A30.84,30.84,0,0,0,783,857.09c-10.23-13.66-28.31-12.69-37,2a33.46,33.46,0,0,0-4.24,11.92c-.51,3.25-2.21,4.4-5.34,4.39q-14.41-.08-28.83,0c-3.16,0-4.81-1.31-5.31-4.46a30.71,30.71,0,0,0-4.68-12.52c-4.78-7.18-11.32-11.47-20-10.93-9.71.59-15.79,6.7-19.75,15.11a29.1,29.1,0,0,0-2.44,9c-.3,2.59-1.74,3.69-4.24,3.74-3.37.08-6.74,0-10.11.06-11.81.18-20.23,8.33-20.82,20.14-.07,1.24,0,2.49,0,3.74q0,95.45,0,190.88a32.93,32.93,0,0,0,1,9.27,19.84,19.84,0,0,0,18.57,14.81c1.25.06,2.5,0,3.74.12,2.21.15,3.44,1.26,3.61,3.5,0,.62.09,1.25.16,1.86,1.4,12.21,9.26,19.25,21.59,19.25q93.42,0,186.84-.07a20.14,20.14,0,0,1,13,4.38c17.93,13.57,38.1,18.51,60.35,14.65C931,1157.63,933.11,1156.53,935.14,1158Z" transform="translate(-563.54 -771.83)"/><path class="cls-2" d="M935.14,1158c-7.11,1.21-14.19,2.62-21.48,2.37-17.51-.62-33.24-6-46.88-17.1a13,13,0,0,0-8.76-3.16c-63,.12-126.06-.07-189.1.22-13.23.06-22.86-9.56-22.68-21.92,0-3.09-1.54-3.1-3.72-3-8.35.38-15.14-2.54-19.85-9.63a20.73,20.73,0,0,1-3.47-11.66q0-99.18,0-198.38c0-12.3,9.36-21.31,21.74-21.38,3.12,0,6.25-.13,9.36,0,2.65.14,3.81-.37,4.15-3.51a28.5,28.5,0,0,1,10.83-19.81c9.69-7.71,23.88-5.73,31.54,4.29a33.46,33.46,0,0,1,6.71,16.4c.27,2.13,1.05,2.64,3,2.63q15.54-.12,31.08,0c2.08,0,2.6-.68,2.93-2.71,1.51-9.32,5.17-17.44,13.84-22.38,11-6.26,22.28-2.42,29.39,6.92a29.35,29.35,0,0,1,6,15.47c.19,2.15,1,2.71,3,2.69,10.36-.07,20.72-.14,31.08,0,3.31.06,3.08-2.13,3.4-4.13,1.13-7,3.94-13.22,9.27-17.9,11.54-10.13,27.77-7.14,35.34,6.29A31.39,31.39,0,0,1,876.08,871c.25,2.46,1.24,3.55,4,3.5,4.84-.09,9.74-.76,14.52.55,9.92,2.7,15.84,10.22,15.81,20.47,0,3,.87,3.86,3.81,3.75,8.59-.34,15.55,2.78,20.36,10.16,2.42,3.72,3,7.82,2.94,12.15-.06,27.2.07,54.4-.14,81.59,0,4.14,1.16,5.89,5.1,7.48,26.86,10.85,43.38,30.45,49,59.07.59,3.06,0,6.23,1.29,9.17.34,18.91-4.62,36.15-16.25,51.26a77.43,77.43,0,0,1-39.34,27.11C936.49,1157.43,935.82,1157.73,935.14,1158Z" transform="translate(-563.54 -771.83)"/><path class="cls-3" d="M886.27,798.08c1,3.4,3.27,5.82,5.75,8.13.85.8,1.76,1.71.87,2.87s-1.91.27-2.84-.39c-11-7.77-20.06-7.26-30.46,1.62-1,.81-1.88,2.75-3.31,1.55-1.59-1.34.2-2.66.92-3.85,4.4-7.25,6.75-14.71,2.39-22.87-1-3.06-3.34-5.16-5.56-7.34-.72-.7-1.68-1.48-.89-2.5s2-.61,2.94.19c10.1,8.77,23,6.09,31.17-2.36.77-.79,1.65-1.88,2.84-.93,1.48,1.18.09,2.22-.53,3.18-3.91,6-6.45,12.31-4.62,19.67A7,7,0,0,0,886.27,798.08Z" transform="translate(-563.54 -771.83)"/><path class="cls-3" d="M678.26,1189.38c4.56-4.19,5.68-9.69,6-15.53,0-1.29-.56-3.22,1.25-3.42s1.63,1.75,1.77,3c1.2,10.57,8.67,18,19.23,19.11,1.35.14,2.7.34,4,.57,1.09.19,2.88-.51,2.79,1.47-.08,1.65-1.71,1.46-2.9,1.66a33.43,33.43,0,0,0-8.11,2.68,9.58,9.58,0,0,0-1.51,1.06c-6.45,3.57-9.56,9.16-9.9,16.41,0,.87,0,1.74,0,2.61-.05,1.32.4,3.15-1.51,3.27s-1.72-2-1.82-3.11c-1.11-12.17-11.58-19.31-22.33-19.29-.5,0-1,0-1.49,0-1,0-2.15-.11-2.39-1.31-.32-1.67,1.18-1.75,2.17-1.93C669.1,1195.63,674.26,1193.71,678.26,1189.38Z" transform="translate(-563.54 -771.83)"/><path class="cls-3" d="M969.34,973c12.76.26,22.49,6.06,28.76,17s5.75,22.12-.38,33c-2.79,5-4.21,5.36-9.31,2.88-9-4.39-17-10.38-24.8-16.52a140.94,140.94,0,0,1-17.34-15.87c-4.89-5.37-4.7-7.54.8-12.22A33.47,33.47,0,0,1,969.34,973Z" transform="translate(-563.54 -771.83)"/><path class="cls-4" d="M850.6,1039.85a110.42,110.42,0,0,0-8.39,16.38c-1.18,1.17-2.71,1.1-4.19,1.13-2.48.05-5-.08-7.45.07-4,.24-6.21,2-6.42,5.85a203,203,0,0,0,0,24.17c.26,4,2.51,5.65,6.73,5.91,2.53.15,5.25-.74,7.53,1.14,1.12,5.23,2.06,10.52,4.14,15.49.76,1.81.33,2.56-1.65,2.43-.87-.05-1.74,0-2.62,0H642.82c-13.39,0-20.63-7.19-20.63-20.52q0-78.62-.08-157.21c0-3.35.76-4.4,4.29-4.4q138.38.15,276.73,0c3.69,0,4.52,1,4.49,4.58q-.24,33.12,0,66.25c0,3.39-.46,4.92-4.42,5.3-8.24.78-15.88,4-23.44,7.27a3.42,3.42,0,0,1-1-3,16.68,16.68,0,0,0-2.3-9.1c0-1.74,1.32-2.61,2.34-3.63a70.9,70.9,0,0,0,6.17-7c1.94-2.53,1.75-4.55-.46-6.89-2-2.11-5.15-3.31-5.74-6.66-.38-7.74-.07-15.47-.18-23.2-.09-6.12-2-8.2-8-8.26q-19.1-.18-38.19,0c-5.89,0-8.18,2.29-8.37,8.16-.21,6.35-.12,12.72,0,19.08.09,7.12,1.88,8.93,9.06,9.43a8.25,8.25,0,0,1,2.56.45c1.26.62,1.07,1.68.47,2.5-3.34,4.58-5.3,9.81-7.15,15.09a2.81,2.81,0,0,1-1,1.1c-2.94,2.2-4,5.18-4,8.78.06,6.34-.09,12.68.05,19s2.18,8.4,8.62,8.45c4.73,0,9.46-.09,14.18.07C848.22,1038.06,850.16,1037.53,850.6,1039.85Z" transform="translate(-563.54 -771.83)"/><path class="cls-5" d="M764.74,927.46H627.32c-5.18,0-5.18,0-5.19-5.11,0-8.49,0-17,0-25.46,0-11.91,7.75-19.53,19.73-19.54,3,0,6,.14,9-.05,2.55-.15,3.37.67,3.51,3.32.66,12,9.28,22.35,20.34,24.87a4,4,0,0,0,1.09.24c1.53-.1,4,.84,4.25-1.12.36-2.4-2.16-1.6-3.6-1.82-6.34-1-11-4.59-14.51-9.66a28.87,28.87,0,0,1-4.62-11.74c-.49-2.95.38-4.14,3.71-4.12,23.46.14,46.93.07,70.39.08,2.74,0,6-.76,8.08.43s1.16,4.77,1.89,7.22c3,9.84,8.35,17.48,18.91,20.25,2.09.55,5.39,1.68,5.91-.53.7-2.91-2.86-1.75-4.5-2.1-11.42-2.46-16.85-13.5-18.23-22.69-.47-3.12,1.86-2.58,3.66-2.58h63.65c3.62,0,7.28.34,10.85-.08,4.16-.49,5.22,1.47,5.74,5.06A28.45,28.45,0,0,0,840.75,903a17.05,17.05,0,0,0,9.54,2.83c1.1,0,2.44.18,2.41-1.53,0-1.42-1.14-1.37-2.16-1.45-12.94-1-19.49-12.86-20.77-23.76-.16-1.41.66-1.7,1.8-1.7h6.74c16.73,0,33.46.26,50.18-.1,10.85-.23,19.66,8.76,19.1,18.9-.49,8.71-.1,17.46-.1,26.19,0,5.12,0,5.12-5,5.12Z" transform="translate(-563.54 -771.83)"/><path class="cls-6" d="M840.78,1082.68c-.34-39.84,32.51-74.42,74.49-74.25,41,.17,74.36,32.45,74.35,74.44,0,41.54-32.91,74.38-74.73,74.44C873.69,1157.36,840.19,1123,840.78,1082.68Z" transform="translate(-563.54 -771.83)"/><path class="cls-6" d="M859.71,1137.17h-3.47q-94.31,0-188.62,0c-10.49,0-18.31-7.92-18.52-18.4-.05-2.6.72-3.4,3.36-3.4q94.68.11,189.36,0c1.93,0,3.11.37,4.08,2.28A85.22,85.22,0,0,0,859.71,1137.17Z" transform="translate(-563.54 -771.83)"/><path class="cls-6" d="M934.5,961.61c0,14.22,0,28.45,0,42.67,0,2.49-.24,3.54-3.3,2.82a61.36,61.36,0,0,0-17.41-1.69c-2.26.12-3.37-.34-3.37-3q.13-48.48,0-96.95c0-2.35.72-3.25,3.19-3.39,12.29-.68,21.54,8.23,21,19.87C934,935.14,934.5,948.39,934.5,961.61Z" transform="translate(-563.54 -771.83)"/><path class="cls-6" d="M850.6,1039.85c-.94-1.18-2.28-.78-3.47-.78-5.22,0-10.44,0-15.66,0-5.89,0-8.36-2-8.55-7.8-.25-7.82-.22-15.66,0-23.48.1-3.22,1.61-6,5.17-6.89,1.57,2,.82,4.3.9,6.47a31.48,31.48,0,0,0,5,16.15c1.53,2.41,3.47,2.93,6.05,2.15,3.39-1,6.26-3,9.18-4.89a196.44,196.44,0,0,0,24.34-18.43c.88-.79,1.67-2,3.17-1.39,3.76,3.6,2.89,8.28,3,12.75C868.1,1020.26,858.11,1028.67,850.6,1039.85Z" transform="translate(-563.54 -771.83)"/><path class="cls-1" d="M851.47,874.35c-6,0-12-.24-17.94.09-3.49.2-3.86-1.06-3.28-4,1.38-7,4.2-13,10.1-17.25a19.06,19.06,0,0,1,26.2,3.18,29.65,29.65,0,0,1,6.65,15.16c.41,2.64-.54,2.85-2.66,2.82C864.18,874.29,857.83,874.35,851.47,874.35Z" transform="translate(-563.54 -771.83)"/><path class="cls-1" d="M678.77,874.35c-6.23,0-12.46-.05-18.69,0-2,0-3.05-.36-2.82-2.67,1-10.2,9.73-23.73,23.48-22.19,7.69.86,12.61,5.39,16.32,11.66,1.93,3.25,2.69,6.92,3.47,10.58.44,2.08-.38,2.63-2.32,2.61C691.73,874.31,685.25,874.35,678.77,874.35Z" transform="translate(-563.54 -771.83)"/><path class="cls-1" d="M765.05,874.35c-6.36,0-12.71,0-19.06,0-1.55,0-2.8-.13-2.49-2.17,1.25-8.06,4.39-15.15,11.48-19.68,9.43-6,21-3.1,27.27,6.67a33.84,33.84,0,0,1,4.55,11.76c.53,2.59-.33,3.54-3.07,3.46C777.51,874.23,771.28,874.35,765.05,874.35Z" transform="translate(-563.54 -771.83)"/><path class="cls-6" d="M838.42,1094.5l-7.86,0c-4.73,0-7.54-2.38-7.65-7.11q-.28-12,0-23.92c.11-4.74,2.9-7.12,7.72-7.16,3.86,0,7.72,0,11.59,0a83.23,83.23,0,0,0-4.38,32C838,1090.35,838.22,1092.43,838.42,1094.5Z" transform="translate(-563.54 -771.83)"/><path class="cls-4" d="M862.27,782.91c7.35,1.65,13.89,1.28,20.91-2.77-2.46,7.77-2.63,14.56,1.17,21.62a23.58,23.58,0,0,0-19,1.08c-1,.45-2.26.67-1.74-1A25.82,25.82,0,0,0,862.27,782.91Z" transform="translate(-563.54 -771.83)"/><path class="cls-4" d="M686.21,1181.8a25.45,25.45,0,0,0,17.13,13.33c-7.33,3.33-12.34,8-14.83,15.83-3.72-7.29-9.49-11.1-16.87-13.41C678.66,1194.25,683.64,1189.64,686.21,1181.8Z" transform="translate(-563.54 -771.83)"/><path class="cls-5" d="M999.66,1005.8c-.67,5.63-1.62,10.94-4.56,15.78-1.62,2.68-3.23,2.82-5.81,1.52-9.52-4.78-17.93-11.2-26.1-17.9-5.37-4.41-10.71-8.86-15.21-14.26-2-2.41-2.67-4,.08-6.41,9.09-7.91,19.36-10.76,30.83-6.81,11.25,3.87,18.11,11.88,20,23.84C999.11,1003,999.42,1004.48,999.66,1005.8Z" transform="translate(-563.54 -771.83)"/><path class="cls-6" d="M678.9,944.73c6.74,0,13.48,0,20.21,0,5,0,7.62,2.64,7.63,7.52q0,11.79,0,23.57c0,5-2.5,7.73-7.51,7.77q-21,.15-41.91,0c-4.36,0-6.75-2.72-6.76-7.16q0-12.15,0-24.32c0-4.62,2.69-7.34,7.39-7.37C664.93,944.69,671.92,944.73,678.9,944.73Z" transform="translate(-563.54 -771.83)"/><path class="cls-6" d="M765,1094.46H744.06c-5.09,0-7.29-2.13-7.34-7.26q-.11-12,0-23.92c0-4.24,2.82-7,7.1-7q21.33-.09,42.64,0c4.47,0,6.92,2.56,7.07,7.81.22,7.72.19,15.45,0,23.18-.11,4.76-2.88,7.17-7.59,7.18Z" transform="translate(-563.54 -771.83)"/><path class="cls-6" d="M765.4,944.73c6.48,0,13,0,19.45,0,5.71,0,8.61,2.67,8.71,8.33.14,7.47.16,15,0,22.43-.12,5.47-3,8.12-8.52,8.13q-19.83,0-39.66,0c-6.22,0-8.66-2.44-8.67-8.51,0-7.48,0-15,0-22.44,0-5.21,2.5-7.84,7.74-7.92C751.43,944.65,758.41,944.73,765.4,944.73Z" transform="translate(-563.54 -771.83)"/><path class="cls-6" d="M765.31,1000.86c7,0,14,0,21,0,4,0,6.75,1.69,7,5.66.55,9.05,1,18.14-.24,27.19-.49,3.75-3,5.31-6.51,5.32q-21.33.08-42.66,0c-4.29,0-7.07-2.74-7.11-7-.09-8.1-.11-16.21,0-24.31.07-5,2.19-6.86,7.25-6.88C751.09,1000.84,758.2,1000.86,765.31,1000.86Z" transform="translate(-563.54 -771.83)"/><path class="cls-6" d="M678.06,1094.46c-7.11,0-14.22,0-21.33,0-4.43,0-6.78-2.12-6.86-6.58-.14-8.35-.12-16.7,0-25a6.54,6.54,0,0,1,6.79-6.53q21.51-.11,43,0c4.2,0,6.89,2.65,7,7.13q.26,12,0,23.93c-.11,4.72-2.92,7.1-7.65,7.11Z" transform="translate(-563.54 -771.83)"/><path class="cls-6" d="M678.65,1000.86h20.2c4.84,0,7.68,2.27,7.8,7q.33,12.13,0,24.3c-.12,4.57-2.92,6.91-7.57,6.92q-20.76,0-41.52,0c-5.16,0-7.71-2.63-7.73-7.89q0-11.22,0-22.43c0-5.88,2-7.86,7.87-7.86Z" transform="translate(-563.54 -771.83)"/><path class="cls-6" d="M836.38,983.65c-12,.61-13.87-1.86-13.56-13.67.14-5.36,0-10.72,0-16.09.06-6.45,2.74-9.15,9-9.15q19.46,0,38.93,0c6.63,0,8.91,2.34,8.91,9q0,12.35,0,24.7c-1.48.49-2.65-.38-3.87-.93-12.72-5.77-24.61-4.48-35.67,4.13C839,982.55,838.16,984,836.38,983.65Z" transform="translate(-563.54 -771.83)"/><path class="cls-3" d="M836.38,983.65c7.62-7.3,16.48-11.28,27.24-10.53a37,37,0,0,1,16.09,5.35c1.92,1.75,3.79,3.57,5.78,5.24,2.82,2.36,2.52,4.76.49,7.44a86.09,86.09,0,0,1-9.2,9.79c-9.77,8.47-19.8,16.61-31.07,23-10,5.71-10.85,4-15.25-5.17-2.7-5.66-2.65-11.81-2.36-17.93A42.38,42.38,0,0,1,836.38,983.65Z" transform="translate(-563.54 -771.83)"/><path class="cls-7" d="M853.51,1082.56a61.52,61.52,0,0,1,61.71-61.43c34,.13,61.82,27.05,61.71,61.86-.11,34.36-27.3,61.49-62,61.62C881.54,1144.74,852.84,1116.78,853.51,1082.56Z" transform="translate(-563.54 -771.83)"/><path class="cls-8" d="M755.1,953.06c1,0,1.54.73,2.15,1.33,2,1.93,4,3.81,5.81,5.84,1.27,1.41,2.2,1.59,3.56.07,2-2.22,4.2-4.26,6.33-6.37.88-.87,1.88-1.45,2.87-.27s-.11,1.82-.78,2.5c-2.09,2.14-4.17,4.3-6.36,6.34-1.33,1.24-1.26,2.16,0,3.36,2.18,2,4.27,4.21,6.36,6.35.67.68,1.7,1.4.77,2.5s-2,.6-2.88-.26c-2.22-2.2-4.48-4.35-6.61-6.63-1.13-1.21-1.9-1.17-3,0-2.13,2.28-4.4,4.43-6.61,6.63-.64.64-1.43,1.29-2.27.58a1.69,1.69,0,0,1,.09-2.64c2.06-2.17,4.13-4.34,6.32-6.38,1.43-1.33,1.46-2.34,0-3.67-2.11-2-4.08-4-6.1-6.08a2.3,2.3,0,0,1-.77-2.36A1.16,1.16,0,0,1,755.1,953.06Z" transform="translate(-563.54 -771.83)"/><path class="cls-3" d="M762.49,1020.26c0-1.16-.89-1.6-1.47-2.2-2.08-2.14-4.22-4.23-6.32-6.37-.76-.78-1.17-1.7-.27-2.62s1.81-.21,2.52.49c2.13,2.1,4.31,4.16,6.33,6.36,1.31,1.42,2.29,1.51,3.64,0,1.93-2.12,4-4.1,6.07-6.09.75-.72,1.52-2,2.76-.81s.06,2.15-.61,2.9a52.65,52.65,0,0,1-5.25,5.31c-2.12,1.8-2.62,3.21-.13,5.16a56.06,56.06,0,0,1,5.32,5.25c.75.78,1.93,1.67.71,2.78-1,.93-2.1.22-2.95-.62-2-1.93-4-3.79-5.8-5.83-1.45-1.62-2.52-1.5-3.93,0-1.83,2-3.84,3.91-5.8,5.82-.85.83-2,1.53-2.94.53s.1-2,.85-2.79c1.92-2,3.87-3.88,5.81-5.82C761.55,1021.27,762.05,1020.72,762.49,1020.26Z" transform="translate(-563.54 -771.83)"/><path class="cls-3" d="M688.31,1086.69c-1.22,0-1.71-.83-2.35-1.4-2.58-2.32-4.59-6.61-7.61-6.74s-5,4.36-7.64,6.57c-.87.72-1.63,2.42-3,1.12s0-2.41.9-3.4c2.28-2.6,6.74-4.65,6.59-7.57-.13-2.54-4.22-4.85-6.52-7.3-.79-.85-2.39-1.78-1.15-3s2.43.08,3.47,1c2.52,2.17,4.33,6.38,7.38,6.33,2.79,0,4.68-4.07,7.07-6.23,1-.92,2.17-2.36,3.47-1.17,1.55,1.43-.35,2.38-1.18,3.27a76.75,76.75,0,0,1-5.57,5.55c-1.53,1.35-1.33,2.26.07,3.54,2.2,2,4.26,4.21,6.36,6.34.64.64,1.19,1.37.66,2.31A3.77,3.77,0,0,1,688.31,1086.69Z" transform="translate(-563.54 -771.83)"/><path class="cls-8" d="M668.4,1030.82c-1.21-.13-1.62-.88-1-2a9.62,9.62,0,0,1,1.47-1.67c2.22-2.48,6.58-4.57,6.36-7.26s-4.17-4.88-6.48-7.3l-.26-.27c-.82-.9-2.12-1.8-.94-3.12,1.33-1.49,2.19.05,3,.83,2.07,2,4.12,4,6.07,6.07,1.23,1.32,2.16,1.28,3.36,0a50.4,50.4,0,0,1,5-5c1.13-.93,2.1-3.79,4-1.8,1.69,1.83-1,2.89-2,4.08a48.3,48.3,0,0,1-4.74,4.75c-1.43,1.27-1.56,2.2-.05,3.55,2.13,1.9,4.1,4,6.09,6.05.74.76,1.93,1.67.68,2.77-1,.92-2.09.16-2.93-.67-2-1.92-4-3.79-5.79-5.82-1.44-1.61-2.53-1.51-3.93,0-1.65,1.86-3.49,3.55-5.26,5.3A3.58,3.58,0,0,1,668.4,1030.82Z" transform="translate(-563.54 -771.83)"/><path class="cls-5" d="M860.65,976.1a28.43,28.43,0,0,1,22,9.16c1.53,1.6,2,2.71.36,4.69-7.36,9.11-16.74,15.9-25.88,23a133.67,133.67,0,0,1-14.38,9.36c-4.72,2.78-6.24,2.28-8.6-2.59a30.42,30.42,0,0,1,21.6-43.33A31.48,31.48,0,0,1,860.65,976.1Z" transform="translate(-563.54 -771.83)"/><path class="cls-4" d="M915.14,1141.61c-32.7,0-58.67-26.19-58.65-59.13a58.71,58.71,0,1,1,58.65,59.13Z" transform="translate(-563.54 -771.83)"/><path class="cls-9" d="M915,1102.75c5.36,0,10.72,0,16.07,0,1.08,0,2.5-.24,2.59,1.37.11,1.95-1.53,1.62-2.69,1.62q-15.87,0-31.76,0c-1.1,0-2.58.11-2.65-1.36-.08-1.78,1.53-1.63,2.75-1.64C904.5,1102.74,909.73,1102.75,915,1102.75Z" transform="translate(-563.54 -771.83)"/><path class="cls-10" d="M883.64,1060c1.18,0,11.44,10.24,11.47,11.47a3.51,3.51,0,0,1-1.44,2.5q-4,4-7.93,7.93c-.89.88-2,2.06-3.17,1-1.36-1.25.1-2.19.92-3a84.75,84.75,0,0,1,6.1-6c2-1.69,1.64-2.8-.11-4.35-2.32-2.07-4.43-4.37-6.62-6.59a1.85,1.85,0,0,1-.7-2C882.4,1060.2,883,1060.05,883.64,1060Z" transform="translate(-563.54 -771.83)"/><path class="cls-11" d="M947,1059.87c.41.35.92.59,1.09,1,.41.94-.17,1.69-.77,2.31-2.09,2.15-4.12,4.36-6.36,6.34-1.75,1.55-2.07,2.67-.1,4.35,2.27,1.93,4.28,4.17,6.36,6.33.66.69,1.59,1.54.68,2.56-1,1.19-2,.36-2.84-.46-3-3-6-6-9-9-.91-.91-1.26-1.91-.26-2.93q4.86-4.92,9.8-9.77A5.66,5.66,0,0,1,947,1059.87Z" transform="translate(-563.54 -771.83)"/></svg>