<?xml version="1.0" standalone="no"?><!DOCTYPE svg PUBLIC "-//W3C//DTD SVG 1.1//EN" "http://www.w3.org/Graphics/SVG/1.1/DTD/svg11.dtd"><svg stroke-width="1.5" id="Layer_1" data-name="Layer 1" viewBox="0 0 24 24" version="1.1" xmlns="http://www.w3.org/2000/svg" xmlns:xlink="http://www.w3.org/1999/xlink"><defs><style>.cls-hns6jst3vuv1a16ge6o3p3-1{fill:none;stroke:#674DC3;stroke-miterlimit:10;;}</style></defs><path class="cls-hns6jst3vuv1a16ge6o3p3-1" d="M18.68 8.16v7.64a2.86 2.86 0 0 1-2.86 2.86h-1.91v2.86l-5.73-2.86H4.36A2.86 2.86 0 0 1 1.5 15.8V8.16A2.86 2.86 0 0 1 4.36 5.3h11.46a2.86 2.86 0 0 1 2.86 2.86Z"/><path class="cls-hns6jst3vuv1a16ge6o3p3-1" d="M18.68 14.84h1A2.86 2.86 0 0 0 22.5 12V4.34a2.86 2.86 0 0 0-2.86-2.86H8.18a2.86 2.86 0 0 0-2.86 2.86v1"/><line class="cls-hns6jst3vuv1a16ge6o3p3-1" x1="5.32" y1="11.98" x2="7.23" y2="11.98"/><line class="cls-hns6jst3vuv1a16ge6o3p3-1" x1="9.14" y1="11.98" x2="11.05" y2="11.98"/><line class="cls-hns6jst3vuv1a16ge6o3p3-1" x1="12.95" y1="11.98" x2="14.86" y2="11.98"/></svg>