<?xml version="1.0" encoding="utf-8"?>
<!-- Generator: Adobe Illustrator 26.0.1, SVG Export Plug-In . SVG Version: 6.00 Build 0)  -->
<svg version="1.1" id="Layer_1" xmlns="http://www.w3.org/2000/svg" xmlns:xlink="http://www.w3.org/1999/xlink" x="0px" y="0px"
	 viewBox="0 0 960 960" style="enable-background:new 0 0 960 960;" xml:space="preserve">
<style type="text/css">
	.st0{fill:#2563EB;}
	.st1{fill:#FFFFFF;}
</style>
<path class="st0" d="M288.2,601.9c-52.6,46.6-101.8,96-162.5,132.5c-14.2,8.8-34.8,15.4-47.9,1c-13.5-14.1-5.6-33.2,3.4-47.3
	c20.4-33.7,43-65.3,60.2-101C47.6,564.1,59.9,456.5,63.1,381c3.6-45.2,4.3-91.7,21.4-134.4c17-46.1,70.7-63.5,116.1-63.4
	c82.6,1.4,165.5,0.1,248,6.1c59.9,5.2,101.2,26.3,102.9,92.3c100.5,13.6,286.5-32.2,306.7,108.8c7.2,84.3,18.4,171.9-2.5,254.9
	c-7.9,29.7-31.3,44.5-60.6,50.1c10.3,48.7,30.2,96.3,32.7,146.2c-8.1,64.9-69.1,10.6-94.9-11.3c-36.7-30.8-72.6-62.5-108.9-93.8
	c-15.8-10.8-28.9-33.1-50.6-27.6C470.1,728.5,295.4,747.8,288.2,601.9z M776.5,805.8c-7.6-34.9-18.9-68.4-28.5-102.7
	c-11.7-33.2,12.8-51.5,43.3-55c12.5-1.8,19.4-9.4,21.4-21.2c14.3-74.2,6.5-150.4-0.2-225.2c-3.4-37.4-17.2-49.7-52.8-59.5
	c-113.1-20.5-228.2-3.7-342.4-4.5c-62.2-0.8-70.6,53.9-76.6,103.5c-2.9,25.8-4.8,51.7-5.8,77.6c0.3,50-13.9,131.6,48.7,148.3
	c15.9,4.3,32.6,6.6,49.1,7.4C680.4,670.1,537.7,611.6,776.5,805.8z M509.4,282.3c-0.2-21-7.6-40.2-32.7-44.1
	c-88.2-14.7-178.2-7.1-267.2-9.5c-105.3-2.1-90.9,74.7-99.3,153.4c-1.2,34.7-1.4,69.6,0.7,104.3c2.1,35,13.3,46.3,47,55.4
	c61.5,15.6,18.6,78.4,0.5,113.4c34-20.1,91.5-100.3,127.9-101.3C299.6,361.4,281.3,281.2,509.4,282.3z"/>
<path class="st0" d="M381.8,912.2c2.5-25.5,5.1-51.1,7.5-76.6c3.1-22.5-3.4-65.7,29.2-64.8c13.8,0.9,24.5,13,22.9,28.6
	c-4.4,44.3-9.6,88.6-14.9,132.8c-1.3,10.5-10.1,17.9-20,18.5c-21.7,0.8-25.1-21-23.4-38.3C382.7,912.2,382.2,912.2,381.8,912.2z"/>
<path class="st0" d="M662.3,76.9c39,2.9,25.6,34.5,12.4,56c-11.8,24.3-23.4,48.6-35.3,72.8c-5.5,13-17.8,29.1-33.3,21
	c-12.5-5.7-13.2-21.8-7.6-33c15.4-34.2,30.8-68.5,46.5-102.5C649.2,82.4,656.4,77.1,662.3,76.9z"/>
<path class="st0" d="M535.4,149.8c2,25.6-29.6,34.9-39.4,12.6c-7.9-20.4-15.2-41-21.4-61.9c-7.8-27.3,34-41.1,44.5-14.6
	C527.2,105.5,530.8,130.8,535.4,149.8z"/>
<path class="st0" d="M313.2,748.8c-5.2,15.6-22.8,29.2-35.9,39.6c-22.5,19-51.7-10.3-32.2-32.5c8.5-10.2,17.8-20,27.7-28.8
	C289.2,712.9,314.4,724.3,313.2,748.8z"/>
<path class="st0" d="M700.7,260.8c-24.9-1.2-29.3-33.1-7.3-42.7c19.9-9.2,53.4-37.7,68.7-9.6c5.5,11.1,0.5,24.2-12.4,30.9
	C733.6,247.1,718.1,256.6,700.7,260.8z"/>
<path class="st0" d="M570.9,817.8c0.1,24.2-32.1,29.9-43,10c-12.4-18.7-34.8-48.7-7.7-64.7c12.5-6.9,28.7-2.4,35.5,11.4
	C561.5,788.3,568.7,803,570.9,817.8z"/>
<path class="st1" d="M776.5,805.8c-238.8-194.2-95.9-135.7-343.7-131.2c-16.5-0.7-33.2-3.1-49.1-7.4
	c-62.7-16.8-48.3-98.3-48.7-148.3c1-25.9,2.8-51.9,5.8-77.6c6-49.5,14.2-104.3,76.6-103.5c114.1,0.8,229.3-15.9,342.4,4.5
	c35.6,9.8,49.4,22.1,52.8,59.5c6.7,74.7,14.5,150.9,0.2,225.1c-2,11.8-8.9,19.4-21.4,21.2c-30.6,3.4-54.9,21.8-43.3,55
	C757.6,737.4,768.8,770.9,776.5,805.8z"/>
<path class="st1" d="M509.4,282.3c-228.4-1.2-209.8,79.5-223.1,271.6c-36.3,1-93.9,81.3-127.9,101.3c18.1-34.9,61-97.9-0.5-113.4
	c-33.7-9.1-44.9-20.4-47-55.4c-2.1-34.7-1.9-69.5-0.7-104.3c8.4-78.7-6-155.5,99.3-153.4c89.1,2.4,179-5.2,267.2,9.5
	C501.9,242,509.2,261.3,509.4,282.3z"/>
</svg>
