<svg width="960" height="960" viewBox="0 0 960 960" fill="none" xmlns="http://www.w3.org/2000/svg">
<g clip-path="url(#clip0_248_1703)">
<path fill-rule="evenodd" clip-rule="evenodd" d="M756.356 794.079C757.765 794.195 759.183 794.177 760.59 794.025C766.007 793.47 771.06 791.035 774.868 787.141C778.676 783.248 781 778.144 781.435 772.715L797.373 573.284L795.959 573.167C786.862 569.842 777.198 566.226 767.606 562.636L767.023 562.418C759.791 559.724 752.604 557.057 745.748 554.542C740.709 552.695 735.223 550.448 732.842 545.642C731.992 543.924 731.622 542.008 731.254 540.101C730.796 537.727 730.341 535.367 728.966 533.416C726.308 529.657 721.305 528.793 716.615 528.493L716.597 528.753C710.278 538.169 703.708 547.512 695.519 555.353C687.33 563.194 677.35 569.504 666.243 571.741C661.629 572.663 656.487 572.779 652.629 570.085C648.62 567.284 646.982 562.138 646.409 557.269C645.159 546.293 647.93 535.237 654.209 526.148L654.227 525.773C653.285 525.73 652.344 525.69 651.403 525.65C650.563 525.614 649.723 525.578 648.883 525.54C643.092 525.289 636.442 525.4 632.683 529.8C631.623 531.044 630.908 532.523 630.193 534.005C629.554 535.326 628.915 536.65 628.029 537.811C624.351 542.619 617.581 543.432 611.563 544.154L611.471 544.165C590.433 546.689 570.014 552.942 551.171 562.63L535.956 753.11C535.465 759.267 537.44 765.367 541.446 770.069C545.453 774.77 551.162 777.687 557.32 778.179L756.356 794.079ZM753.411 721.922C755.731 726.029 756.781 730.733 756.428 735.437C755.952 741.744 752.991 747.605 748.196 751.73C743.401 755.856 737.164 757.908 730.857 757.437C726.152 757.084 721.659 755.343 717.943 752.436C714.228 749.529 711.458 745.586 709.985 741.104C708.511 736.623 708.399 731.805 709.663 727.26C710.927 722.715 713.51 718.647 717.086 715.571C720.662 712.494 725.071 710.547 729.753 709.975C734.436 709.404 739.183 710.234 743.394 712.36C747.605 714.487 751.091 717.814 753.411 721.922ZM683.283 715.943C685.603 720.05 686.653 724.754 686.3 729.458C686.066 732.582 685.219 735.629 683.807 738.425C682.395 741.221 680.446 743.712 678.072 745.755C675.697 747.798 672.943 749.353 669.967 750.332C666.992 751.31 663.852 751.693 660.729 751.458C656.024 751.105 651.531 749.364 647.815 746.457C644.1 743.55 641.33 739.607 639.857 735.125C638.383 730.644 638.271 725.826 639.535 721.281C640.799 716.736 643.382 712.668 646.958 709.592C650.534 706.515 654.943 704.568 659.625 703.996C664.308 703.425 669.055 704.255 673.266 706.381C677.477 708.508 680.963 711.835 683.283 715.943ZM608.253 710.752C610.573 714.859 611.623 719.563 611.27 724.267H611.272C611.037 727.391 610.19 730.438 608.778 733.234C607.366 736.03 605.417 738.521 603.042 740.564C600.667 742.607 597.913 744.162 594.937 745.14C591.962 746.119 588.822 746.502 585.699 746.267C580.994 745.914 576.501 744.173 572.785 741.266C569.07 738.359 566.301 734.415 564.827 729.934C563.353 725.453 563.241 720.635 564.505 716.09C565.769 711.545 568.352 707.477 571.928 704.401C575.504 701.324 579.913 699.377 584.595 698.805C589.278 698.234 594.025 699.064 598.236 701.19C602.447 703.317 605.933 706.644 608.253 710.752ZM736.372 560.848C735.662 560.634 734.913 561.035 734.698 561.745C734.484 562.454 734.885 563.204 735.595 563.418L788.944 579.552C789.653 579.767 790.403 579.366 790.617 578.656C790.832 577.946 790.431 577.197 789.721 576.982L736.372 560.848Z" fill="url(#paint0_linear_248_1703)"/>
<path d="M715.051 528.408C715.561 528.435 716.08 528.461 716.608 528.488L716.59 528.748C710.271 538.164 703.702 547.517 695.512 555.348C687.322 563.179 677.343 569.499 666.236 571.736C661.626 572.658 656.48 572.774 652.622 570.08C648.613 567.28 646.975 562.133 646.402 557.264C645.152 546.288 647.923 535.232 654.202 526.143L654.22 525.768L668.442 526.385C682.375 526.994 696.313 527.6 710.257 528.202C711.855 528.274 713.457 528.336 715.051 528.408Z" fill="url(#paint1_linear_248_1703)"/>
<path d="M697.052 473.534C697.123 477.257 695.441 481.134 692.245 483.057C691.066 483.761 689.725 484.147 688.352 484.176L688.325 483.236C689.142 482.248 689.752 481.105 690.118 479.876C690.484 478.647 690.599 477.357 690.457 476.083C690.314 474.808 689.916 473.576 689.287 472.458C688.658 471.341 687.81 470.361 686.795 469.578L685.747 469.378C688.737 468.059 691.302 465.937 693.158 463.247C695.473 466.2 696.831 469.789 697.052 473.534V473.534Z" fill="#171717"/>
<path d="M664.3 703.888C669.004 704.241 673.498 705.981 677.213 708.888C680.928 711.795 683.698 715.739 685.172 720.22C686.646 724.701 686.758 729.519 685.494 734.064C684.23 738.609 681.646 742.677 678.07 745.754C674.494 748.83 670.086 750.777 665.403 751.349C660.721 751.92 655.974 751.09 651.763 748.964C647.552 746.838 644.066 743.51 641.746 739.403C639.426 735.295 638.376 730.592 638.729 725.888C638.963 722.764 639.81 719.717 641.222 716.92C642.634 714.124 644.582 711.633 646.957 709.59C649.332 707.547 652.085 705.992 655.061 705.014C658.037 704.035 661.176 703.652 664.3 703.888V703.888Z" fill="#171717"/>
<path d="M589.272 698.705C593.975 699.059 598.467 700.8 602.181 703.707C605.895 706.614 608.663 710.558 610.136 715.038C611.609 719.519 611.72 724.336 610.456 728.879C609.191 733.423 606.608 737.49 603.032 740.566C599.456 743.641 595.049 745.587 590.367 746.158C585.685 746.729 580.939 745.899 576.729 743.772C572.519 741.646 569.034 738.319 566.715 734.212C564.396 730.105 563.347 725.403 563.7 720.7C564.174 714.392 567.135 708.531 571.931 704.407C576.726 700.282 582.964 698.231 589.272 698.705V698.705Z" fill="url(#paint2_linear_248_1703)"/>
<path d="M836.273 308L800.016 761.885C798.673 785.021 773.424 795.037 760.59 794.025C766.007 793.471 771.06 791.035 774.868 787.142C778.676 783.249 781 778.144 781.435 772.715L797.366 573.276L817.9 316.152C818.144 313.103 817.785 310.035 816.843 307.124C815.902 304.213 814.396 301.516 812.412 299.188C810.428 296.859 808.005 294.944 805.281 293.551C802.557 292.159 799.585 291.317 796.536 291.073L597.509 275.173C593.891 274.88 590.255 275.439 586.891 276.803C583.528 278.168 580.531 280.301 578.14 283.031C585.972 272.174 597.151 265.873 615.866 267.153L814.902 283.053C817.943 283.288 820.908 284.119 823.628 285.5C826.348 286.881 828.77 288.784 830.754 291.1C832.739 293.417 834.248 296.102 835.195 299.001C836.141 301.901 836.508 304.959 836.273 308V308Z" fill="#171717"/>
<path d="M355.437 749.229C356.319 753.862 355.808 758.653 353.967 762.996C352.127 767.339 349.04 771.038 345.097 773.626C341.154 776.215 336.532 777.576 331.815 777.537C327.099 777.498 322.5 776.062 318.599 773.41C314.699 770.758 311.673 767.008 309.904 762.636C308.134 758.264 307.701 753.465 308.659 748.847C309.617 744.228 311.923 739.998 315.285 736.69C318.647 733.382 322.915 731.145 327.548 730.263C330.625 729.676 333.787 729.701 336.854 730.337C339.921 730.973 342.832 732.206 345.422 733.968C348.012 735.729 350.23 737.983 351.948 740.602C353.666 743.221 354.852 746.152 355.437 749.229Z" fill="#171717"/>
<path d="M348 525.034C349.489 536.177 347.008 547.489 340.992 556.986H340.983C336.701 563.995 330.736 569.822 323.628 573.938C306.811 583.515 284.703 582.405 268.428 571.938C262.758 568.262 257.795 563.597 253.776 558.164C246.197 547.983 241.94 535.713 241.586 523.025C241.371 513.385 243.645 503.225 250.196 496.147C250.214 496.138 250.223 496.12 250.232 496.111C259.961 485.648 275.499 484.87 288.832 485.425C302.607 486.006 315.632 485.255 327.712 493.225C329.299 494.27 330.818 495.415 332.259 496.653C340.714 503.94 346.295 514.003 348 525.034V525.034ZM288.561 514.356C293.904 503.499 283.755 495.596 273.354 498.29C270.748 499.054 268.481 500.683 266.925 502.909C265.37 505.135 264.62 507.824 264.798 510.534C265.107 513.231 266.284 515.755 268.152 517.726C270.019 519.697 272.476 521.008 275.153 521.462C277.848 521.802 280.581 521.302 282.981 520.03C285.381 518.758 287.33 516.777 288.561 514.356Z" fill="#171717"/>
<path d="M281.642 763.738C282.527 768.372 282.017 773.164 280.178 777.508C278.339 781.852 275.252 785.552 271.31 788.142C267.367 790.732 262.745 792.095 258.028 792.057C253.311 792.02 248.711 790.585 244.809 787.933C240.908 785.281 237.881 781.532 236.11 777.159C234.34 772.787 233.906 767.988 234.864 763.369C235.821 758.75 238.127 754.518 241.489 751.21C244.851 747.901 249.12 745.664 253.753 744.781C259.965 743.599 266.393 744.931 271.623 748.486C276.852 752.041 280.456 757.527 281.642 763.738Z" fill="url(#paint3_linear_248_1703)"/>
<path d="M374.599 312.456L422.778 565.337L421.937 565.498C395.857 564.684 369.753 566.052 343.9 569.588C343.898 565.31 343.005 561.079 341.277 557.165L340.991 556.986C347.008 547.489 349.489 536.177 347.999 525.034C346.294 514.002 340.712 503.939 332.255 496.652L332.372 496.518C330.839 465.362 329.314 434.206 327.798 403.05L327.735 402.907C328.783 402.44 329.822 401.94 330.85 401.407C340.839 396.207 349.65 387.696 352.59 376.83C346.536 376.305 340.455 377.461 335.015 380.169C329.575 382.877 324.988 387.033 321.757 392.18C325.551 385.825 329.34 379.471 333.123 373.116C334.394 370.977 335.723 368.453 334.869 366.108C333.687 362.885 329.033 362.366 326.097 364.139C323.161 365.912 321.443 369.07 319.474 371.872C312.636 381.618 301.717 387.857 290.374 391.491C279.031 395.125 267.103 396.413 255.325 398.203C246.643 399.519 237.057 401.694 232.108 408.961C226.496 417.214 229.243 428.214 229.718 438.184C230.185 448.457 227.973 458.675 223.3 467.836C221.081 472.168 218.781 478.478 222.942 481.011C226.791 483.356 231.078 479.239 233.558 475.283C231.035 479.767 230.219 485.012 231.258 490.051C237.788 488.057 243.311 483.646 246.698 477.718L247.369 477.628L249.839 495.842L250.188 496.155C243.637 503.235 241.363 513.393 241.578 523.033C241.932 535.721 246.189 547.991 253.768 558.172L253.634 558.272C250.671 555.292 245.382 555.623 242.142 558.299C238.902 560.975 237.506 565.387 237.532 569.594C237.558 573.801 238.821 577.882 240.074 581.901C220.16 589.409 200.951 598.67 182.674 609.575L180.598 609.969L132.699 358.541C132.126 355.537 132.151 352.449 132.771 349.454C133.392 346.459 134.596 343.616 136.316 341.087C138.036 338.557 140.237 336.392 142.794 334.713C145.351 333.035 148.213 331.877 151.217 331.305L347.362 293.929C350.527 293.322 353.784 293.38 356.924 294.101C360.065 294.822 363.021 296.19 365.603 298.117C367.758 300.195 369.776 302.41 371.644 304.749L371.671 304.776C373.09 307.145 374.081 309.744 374.599 312.456V312.456ZM191.915 474.956C191.915 473.68 191.537 472.432 190.828 471.371C190.119 470.31 189.111 469.483 187.932 468.994C186.753 468.506 185.455 468.378 184.204 468.627C182.952 468.876 181.802 469.491 180.9 470.393C179.997 471.296 179.382 472.445 179.133 473.697C178.884 474.949 179.012 476.246 179.501 477.425C179.989 478.605 180.816 479.612 181.877 480.321C182.939 481.031 184.186 481.409 185.462 481.409C187.174 481.408 188.814 480.729 190.024 479.519C191.235 478.309 191.915 476.668 191.915 474.957V474.956ZM191.539 439.566C191.54 437.089 190.806 434.667 189.431 432.606C188.055 430.546 186.099 428.94 183.811 427.991C181.522 427.042 179.004 426.793 176.574 427.276C174.144 427.758 171.911 428.951 170.159 430.702C168.407 432.453 167.213 434.685 166.729 437.114C166.245 439.544 166.492 442.063 167.439 444.352C168.387 446.641 169.992 448.598 172.051 449.975C174.111 451.352 176.532 452.087 179.009 452.088C182.331 452.087 185.516 450.768 187.865 448.42C190.215 446.073 191.536 442.888 191.539 439.567V439.566Z" fill="url(#paint4_linear_248_1703)"/>
<path d="M352.591 376.826C349.647 387.692 340.84 396.203 330.851 401.403C329.822 401.94 328.784 402.44 327.736 402.903C318.562 407.074 308.536 409.168 298.648 411.209C285.472 413.939 272.297 416.666 259.123 419.39C252.894 420.678 245.832 422.59 243.049 428.304C241.259 431.983 241.769 436.314 242.324 440.369C244.006 452.792 245.688 465.209 247.372 477.62L246.701 477.71C243.313 483.638 237.79 488.049 231.261 490.043C230.221 485.004 231.038 479.759 233.561 475.275C233.65 475.132 233.74 474.989 233.82 474.845C233.731 474.989 233.65 475.132 233.561 475.275C231.081 479.231 226.794 483.348 222.945 481.003C218.784 478.47 221.084 472.16 223.303 467.828C227.976 458.667 230.187 448.449 229.721 438.176C229.246 428.206 226.499 417.206 232.111 408.953C237.06 401.686 246.646 399.511 255.328 398.195C267.106 396.405 279.028 395.107 290.377 391.483C301.726 387.859 312.636 381.61 319.477 371.864C321.446 369.064 323.177 365.894 326.1 364.131C329.023 362.368 333.69 362.877 334.872 366.1C335.722 368.445 334.397 370.969 333.126 373.108C329.34 379.462 325.551 385.817 321.76 392.172C324.99 387.026 329.578 382.871 335.017 380.163C340.457 377.456 346.537 376.301 352.591 376.826V376.826Z" fill="#171717"/>
<path d="M347.364 293.929L151.219 331.305C148.214 331.877 145.352 333.035 142.795 334.713C140.238 336.392 138.037 338.557 136.317 341.087C134.597 343.616 133.393 346.459 132.772 349.454C132.151 352.449 132.127 355.537 132.7 358.541L180.6 609.963L218.415 808.463C219.435 813.816 222.299 818.641 226.509 822.101C230.718 825.561 236.007 827.436 241.456 827.4C228.809 829.79 202.62 822.567 198.772 799.717L113.547 352.427C112.414 346.372 113.732 340.115 117.211 335.031C120.69 329.948 126.045 326.453 132.1 325.317L328.238 287.95C345.798 284.808 356.816 289.713 365.605 298.117C363.022 296.19 360.066 294.823 356.926 294.102C353.785 293.38 350.529 293.322 347.364 293.929Z" fill="#171717"/>
<path d="M315.358 422.768C308.636 423.529 301.914 424.287 295.193 425.041C292.947 425.301 290.262 425.874 289.483 428.004C289.195 429.141 289.235 430.335 289.599 431.45C293.081 446.79 296.565 462.134 300.053 477.481C297.233 478.796 294.414 480.105 291.595 481.41" stroke="#171717" stroke-width="2.685" stroke-linecap="round" stroke-linejoin="round"/>
<path d="M276.854 442.807C276.172 441.815 275.237 441.023 274.147 440.513C273.057 440.004 271.85 439.795 270.651 439.908C269.453 440.021 268.307 440.452 267.331 441.157C266.355 441.862 265.586 442.815 265.102 443.917" stroke="#171717" stroke-width="2.685" stroke-linecap="round" stroke-linejoin="round"/>
<path d="M305.128 438.851C306.738 437.598 308.678 436.839 310.711 436.665C312.745 436.492 314.785 436.913 316.584 437.876" stroke="#171717" stroke-width="2.685" stroke-linecap="round" stroke-linejoin="round"/>
<path d="M332.256 496.652C330.815 495.414 329.296 494.269 327.709 493.224C315.627 485.259 302.604 486.01 288.829 485.424C275.494 484.869 259.956 485.647 250.229 496.11C250.22 496.119 250.211 496.137 250.193 496.146C243.642 503.226 241.368 513.384 241.583 523.024C241.937 535.712 246.194 547.982 253.773 558.163C257.792 563.596 262.755 568.261 268.425 571.937C284.705 582.4 306.813 583.51 323.625 573.937C330.733 569.821 336.699 563.994 340.98 556.985H340.989C347.006 547.489 349.488 536.177 348 525.034C346.295 514.002 340.713 503.939 332.256 496.652V496.652Z" stroke="#171717" stroke-width="2.685" stroke-linecap="round" stroke-linejoin="round"/>
<path d="M273.354 498.29C270.749 499.054 268.481 500.683 266.926 502.909C265.37 505.135 264.62 507.824 264.798 510.534C265.108 513.231 266.284 515.755 268.152 517.726C270.019 519.697 272.476 521.008 275.153 521.462C277.848 521.802 280.582 521.302 282.981 520.03C285.381 518.758 287.33 516.777 288.561 514.356C293.9 503.5 283.755 495.6 273.354 498.29Z" stroke="#171717" stroke-width="2.685" stroke-linecap="round" stroke-linejoin="round"/>
<path d="M269.891 506.623C273.301 510.794 280.774 510.454 283.799 505.996" stroke="#171717" stroke-width="2.685" stroke-linecap="round" stroke-linejoin="round"/>
<path d="M234.009 474.536C233.946 474.644 233.884 474.751 233.821 474.849C233.732 474.993 233.651 475.136 233.562 475.279C231.039 479.763 230.223 485.008 231.262 490.047C237.792 488.053 243.315 483.642 246.702 477.714" stroke="#171717" stroke-width="2.685" stroke-linecap="round" stroke-linejoin="round"/>
<path d="M249.842 495.838L247.372 477.624C245.688 465.21 244.006 452.793 242.324 440.373C241.769 436.318 241.259 431.987 243.049 428.308C245.832 422.598 252.894 420.682 259.123 419.394C272.297 416.673 285.472 413.946 298.648 411.213C308.538 409.172 318.562 407.078 327.736 402.907C328.784 402.441 329.822 401.941 330.851 401.407C340.84 396.207 349.651 387.696 352.591 376.83C346.537 376.306 340.455 377.461 335.015 380.169C329.576 382.877 324.988 387.033 321.758 392.18C325.552 385.826 329.34 379.471 333.124 373.116C334.395 370.977 335.724 368.453 334.87 366.108C333.688 362.885 329.034 362.366 326.098 364.139C323.162 365.912 321.444 369.07 319.475 371.872C312.637 381.618 301.718 387.857 290.375 391.491C279.032 395.125 267.104 396.413 255.326 398.203C246.644 399.519 237.058 401.694 232.109 408.961C226.497 417.214 229.244 428.214 229.719 438.184C230.185 448.457 227.974 458.675 223.301 467.836C221.082 472.168 218.782 478.478 222.943 481.011C226.792 483.356 231.079 479.239 233.559 475.283C233.648 475.14 233.738 474.997 233.818 474.853" stroke="#171717" stroke-width="2.685" stroke-linecap="round" stroke-linejoin="round"/>
<path d="M332.373 496.518C330.839 465.362 329.315 434.206 327.799 403.05" stroke="#171717" stroke-width="2.685" stroke-linecap="round" stroke-linejoin="round"/>
<path d="M253.637 558.266C250.674 555.286 245.385 555.617 242.145 558.293C238.905 560.969 237.509 565.381 237.535 569.588C237.561 573.795 238.824 577.876 240.077 581.895C220.162 589.403 200.954 598.664 182.677 609.569" stroke="#171717" stroke-width="2.685" stroke-linecap="round" stroke-linejoin="round"/>
<path d="M341.278 557.165C343.006 561.079 343.899 565.31 343.901 569.588C369.754 566.052 395.857 564.684 421.938 565.498" stroke="#171717" stroke-width="2.685" stroke-linecap="round" stroke-linejoin="round"/>
<path d="M346.72 667.746C348.12 673.993 350.282 680.992 356.064 683.767C361.327 686.3 367.95 684.116 371.995 679.9C376.04 675.684 377.965 669.876 379.147 664.157C381.756 651.428 381.281 638.259 377.759 625.751C377.75 625.715 372.47 626.378 365.954 627.351C355.903 628.851 342.898 631.057 341.699 632.507C337.349 637.789 345.234 661.105 346.72 667.746Z" stroke="#171717" stroke-width="2.685" stroke-linecap="round" stroke-linejoin="round"/>
<path d="M369.2 648.127C368.117 641.199 367.034 634.275 365.951 627.353C365.557 624.802 365.151 622.253 364.761 619.701" stroke="#171717" stroke-width="2.685" stroke-linecap="round" stroke-linejoin="round"/>
<path d="M669.324 443.318C668.506 442.682 667.522 442.293 666.49 442.199C665.457 442.104 664.42 442.308 663.499 442.785C662.579 443.262 661.815 443.993 661.297 444.891C660.779 445.789 660.53 446.816 660.578 447.852C660.626 448.887 660.97 449.887 661.57 450.733C662.169 451.579 662.998 452.236 663.958 452.625C664.919 453.015 665.971 453.12 666.99 452.93C668.009 452.74 668.952 452.262 669.708 451.552" stroke="#171717" stroke-width="2.685" stroke-linecap="round" stroke-linejoin="round"/>
<path d="M648.4 420.485C648.257 418.239 648.1 415.992 647.961 413.746" stroke="#171717" stroke-width="2.685" stroke-linecap="round" stroke-linejoin="round"/>
<path d="M658.87 402.361C657.855 401.797 656.788 401.333 655.683 400.974C651.216 399.518 646.368 399.763 642.07 401.663" stroke="#171717" stroke-width="2.685" stroke-linecap="round" stroke-linejoin="round"/>
<path d="M676.1 470.822C679.363 471.233 682.677 470.744 685.683 469.41C688.689 468.075 691.274 465.946 693.159 463.25C695.473 466.202 696.831 469.79 697.053 473.534C697.124 477.257 695.442 481.134 692.246 483.057C691.067 483.761 689.725 484.147 688.353 484.176C687.181 484.251 686.008 484.039 684.937 483.558C683.866 483.078 682.927 482.344 682.204 481.419" stroke="#171717" stroke-width="2.685" stroke-linecap="round" stroke-linejoin="round"/>
<path d="M688.325 483.236C689.142 482.248 689.752 481.105 690.118 479.876C690.484 478.647 690.599 477.357 690.456 476.083C690.314 474.808 689.916 473.576 689.287 472.458C688.658 471.341 687.81 470.361 686.795 469.578" stroke="#171717" stroke-width="2.685" stroke-linecap="round" stroke-linejoin="round"/>
<path d="M639.063 373.4C630.953 386.965 625.854 402.115 624.112 417.823C622.369 433.53 624.024 449.429 628.963 464.442C629.5 466.053 630.094 467.653 630.744 469.242C633.062 474.836 636.186 480.098 640.894 483.822C645.294 487.303 650.802 489.201 655.178 492.727C664.778 500.442 666.948 513.927 668.451 526.156" stroke="#171717" stroke-width="2.685" stroke-linecap="round" stroke-linejoin="round"/>
<path d="M630.381 469.39C626.267 470.259 621.979 469.656 618.265 467.687C614.55 465.719 611.644 462.508 610.054 458.617C608.463 454.725 608.289 450.398 609.562 446.391C610.834 442.384 613.473 438.951 617.018 436.69C613.79 434.625 611.231 431.668 609.652 428.176C608.073 424.685 607.541 420.81 608.122 417.022C608.703 413.234 610.372 409.697 612.925 406.84C615.478 403.982 618.806 401.927 622.505 400.925C615.282 386.925 617.913 368.991 627.305 356.344C636.697 343.697 651.963 336.161 667.599 334.219C683.235 332.277 699.167 335.552 713.783 341.406C727.342 346.83 740.249 354.688 749.383 366.082C759.828 379.095 764.661 395.85 766.218 412.462C767.775 429.074 766.281 445.802 765.395 462.467C763.64 495.553 764.268 528.722 767.274 561.717" stroke="#171717" stroke-width="2.685" stroke-linecap="round" stroke-linejoin="round"/>
<path d="M637.586 368.332C638.123 370.006 638.705 371.653 639.34 373.291C643.216 383.36 648.739 392.716 655.683 400.974C661.716 408.186 668.772 414.476 676.627 419.644C688.063 427.097 700.937 432.064 714.415 434.224C722.622 435.559 730.968 435.824 739.243 435.012" stroke="#171717" stroke-width="2.685" stroke-linecap="round" stroke-linejoin="round"/>
<path d="M714.469 433.9L714.415 434.222C709.198 464.885 707.818 496.077 710.307 527.081" stroke="#171717" stroke-width="2.685" stroke-linecap="round" stroke-linejoin="round"/>
<path d="M550.8 562.813C550.925 562.75 551.042 562.687 551.167 562.625C570.01 552.937 590.43 546.684 611.467 544.16C617.508 543.435 624.329 542.639 628.025 537.806C629.905 535.344 630.674 532.149 632.679 529.795C636.438 525.395 643.088 525.284 648.879 525.535C650.66 525.615 652.441 525.687 654.223 525.768L668.445 526.385C682.378 526.994 696.316 527.6 710.26 528.202C711.853 528.274 713.46 528.336 715.049 528.408C715.559 528.435 716.078 528.461 716.606 528.488C721.296 528.788 726.299 529.652 728.957 533.411C731.437 536.929 730.926 541.78 732.833 545.637C735.214 550.443 740.7 552.69 745.739 554.537C752.595 557.052 759.782 559.719 767.014 562.413C776.797 566.074 786.669 569.77 795.95 573.162" stroke="#171717" stroke-width="2.685" stroke-linecap="round" stroke-linejoin="round"/>
<path d="M654.206 526.143C647.928 535.232 645.157 546.288 646.406 557.264C646.979 562.133 648.617 567.279 652.626 570.08C656.484 572.774 661.626 572.658 666.24 571.736C677.347 569.499 687.327 563.189 695.516 555.348C703.705 547.507 710.275 538.164 716.594 528.748" stroke="#171717" stroke-width="2.685" stroke-linecap="round" stroke-linejoin="round"/>
<path d="M371.673 304.776C373.091 307.145 374.082 309.744 374.6 312.456L422.779 565.337L460.326 762.377C461.481 768.445 460.178 774.724 456.704 779.832C453.23 784.939 447.869 788.458 441.8 789.613L245.662 826.989C244.285 827.254 242.886 827.388 241.483 827.389" stroke="#171717" stroke-width="2.685" stroke-linecap="round" stroke-linejoin="round"/>
<path d="M241.455 827.4C236.007 827.435 230.718 825.56 226.509 822.1C222.3 818.639 219.437 813.814 218.417 808.461L180.599 609.963L132.699 358.541C132.126 355.537 132.151 352.449 132.771 349.454C133.392 346.459 134.596 343.616 136.316 341.087C138.036 338.558 140.237 336.392 142.794 334.714C145.351 333.035 148.213 331.877 151.217 331.305L347.362 293.929C352.03 293.045 356.856 293.608 361.196 295.541C365.535 297.475 369.18 300.688 371.644 304.749" stroke="#171717" stroke-width="2.685" stroke-linecap="round" stroke-linejoin="round"/>
<path d="M241.483 827.392C241.478 827.392 241.473 827.392 241.469 827.394C241.464 827.395 241.46 827.398 241.456 827.401C228.809 829.791 202.62 822.568 198.772 799.718L113.547 352.428C112.414 346.373 113.731 340.116 117.211 335.032C120.69 329.948 126.045 326.453 132.1 325.317L328.238 287.95C345.798 284.808 356.816 289.713 365.605 298.117C367.76 300.195 369.777 302.411 371.646 304.749L371.673 304.776" stroke="#171717" stroke-width="2.685" stroke-linecap="round" stroke-linejoin="round"/>
<path d="M561.965 427.494L551.171 562.625L535.956 753.105C535.465 759.262 537.44 765.362 541.446 770.064C545.453 774.765 551.162 777.682 557.32 778.174L756.356 794.074C757.765 794.19 759.183 794.172 760.59 794.02C766.007 793.465 771.06 791.03 774.868 787.137C778.676 783.243 781 778.139 781.435 772.71L797.366 573.271L817.9 316.152C818.144 313.102 817.785 310.035 816.843 307.124C815.902 304.213 814.396 301.516 812.412 299.187C810.428 296.859 808.005 294.943 805.281 293.551C802.557 292.159 799.585 291.317 796.536 291.073L597.509 275.173C591.35 274.682 585.249 276.656 580.546 280.662C575.843 284.669 572.923 290.379 572.43 296.537L570.452 321.32L570.407 321.911" stroke="#171717" stroke-width="2.685" stroke-linecap="round" stroke-linejoin="round"/>
<path d="M760.554 794.025H760.59C773.424 795.037 798.673 785.025 800.016 761.885L836.273 308C836.508 304.959 836.141 301.901 835.194 299.001C834.247 296.101 832.738 293.417 830.754 291.1C828.769 288.784 826.347 286.881 823.627 285.5C820.907 284.12 817.941 283.288 814.9 283.054L615.864 267.154C597.149 265.874 585.97 272.175 578.138 283.032C576.684 285.059 575.36 287.176 574.173 289.369" stroke="#171717" stroke-width="2.685" stroke-linecap="round" stroke-linejoin="round"/>
<path d="M566.09 424.3C566.027 424.345 565.956 424.39 565.89 424.435C564.548 425.392 563.178 426.305 561.764 427.191C546.701 436.625 527.726 442.255 507.123 442.255C458.093 442.255 418.354 410.418 418.354 371.145C418.354 331.872 458.093 300.035 507.123 300.035C531.923 300.035 554.345 308.179 570.447 321.327C586.182 334.144 595.883 351.74 595.883 371.145C595.883 385.745 590.396 399.32 580.971 410.606L580.73 410.906" stroke="#171717" stroke-width="2.685" stroke-linecap="round" stroke-linejoin="round"/>
<path d="M565.562 424.182C565.67 424.262 565.786 424.352 565.893 424.433C574.493 431.038 583.093 437.64 591.693 444.239C586.674 433.539 583.07 422.231 580.974 410.6C580.93 410.35 580.886 410.09 580.841 409.84" stroke="#171717" stroke-width="2.685" stroke-linecap="round" stroke-linejoin="round"/>
<path d="M281.642 763.738C282.527 768.372 282.017 773.164 280.178 777.508C278.339 781.852 275.252 785.552 271.31 788.142C267.367 790.732 262.745 792.095 258.028 792.057C253.311 792.02 248.711 790.585 244.809 787.933C240.908 785.281 237.881 781.532 236.11 777.159C234.34 772.787 233.906 767.988 234.864 763.369C235.821 758.75 238.127 754.518 241.489 751.21C244.851 747.901 249.12 745.664 253.753 744.781C259.965 743.599 266.393 744.931 271.623 748.486C276.852 752.041 280.456 757.527 281.642 763.738Z" stroke="#171717" stroke-width="2.685" stroke-linecap="round" stroke-linejoin="round"/>
<path d="M355.437 749.229C356.319 753.862 355.808 758.653 353.967 762.996C352.127 767.339 349.04 771.038 345.097 773.626C341.154 776.215 336.532 777.576 331.815 777.537C327.099 777.498 322.5 776.062 318.599 773.41C314.699 770.758 311.673 767.008 309.904 762.636C308.134 758.264 307.701 753.465 308.659 748.847C309.617 744.228 311.923 739.998 315.285 736.69C318.647 733.382 322.915 731.145 327.548 730.263C330.625 729.676 333.787 729.701 336.854 730.337C339.921 730.973 342.832 732.206 345.422 733.968C348.012 735.729 350.23 737.983 351.948 740.602C353.666 743.221 354.852 746.152 355.437 749.229Z" stroke="#171717" stroke-width="2.685" stroke-linecap="round" stroke-linejoin="round"/>
<path d="M424.7 736.752C425.582 741.386 425.071 746.177 423.231 750.52C421.39 754.863 418.303 758.563 414.36 761.152C410.417 763.74 405.795 765.102 401.078 765.063C396.361 765.025 391.762 763.589 387.861 760.936C383.961 758.284 380.934 754.534 379.165 750.162C377.395 745.789 376.962 740.99 377.92 736.372C378.878 731.753 381.184 727.522 384.546 724.214C387.909 720.906 392.177 718.669 396.811 717.787C399.887 717.2 403.049 717.225 406.116 717.86C409.183 718.495 412.095 719.729 414.685 721.49C417.275 723.251 419.493 725.506 421.211 728.125C422.929 730.743 424.115 733.675 424.7 736.752V736.752Z" stroke="#171717" stroke-width="2.685" stroke-linecap="round" stroke-linejoin="round"/>
<path d="M611.272 724.268C610.92 728.972 609.181 733.467 606.275 737.184C603.369 740.9 599.426 743.671 594.944 745.146C590.463 746.622 585.645 746.735 581.099 745.472C576.554 744.209 572.485 741.626 569.407 738.05C566.33 734.474 564.382 730.066 563.81 725.383C563.238 720.7 564.067 715.952 566.194 711.741C568.32 707.529 571.647 704.043 575.755 701.723C579.863 699.402 584.567 698.352 589.272 698.706C595.577 699.181 601.437 702.141 605.562 706.934C609.687 711.727 611.741 717.961 611.272 724.268V724.268Z" stroke="#171717" stroke-width="2.685" stroke-linecap="round" stroke-linejoin="round"/>
<path d="M686.3 729.458C685.947 734.162 684.207 738.656 681.3 742.371C678.392 746.087 674.449 748.856 669.968 750.33C665.486 751.804 660.669 751.916 656.124 750.652C651.579 749.388 647.511 746.804 644.434 743.228C641.357 739.652 639.41 735.244 638.839 730.561C638.267 725.879 639.097 721.132 641.224 716.921C643.35 712.71 646.678 709.224 650.785 706.904C654.893 704.584 659.596 703.534 664.3 703.887C670.608 704.363 676.468 707.323 680.594 712.118C684.719 716.913 686.772 723.15 686.3 729.458V729.458Z" stroke="#171717" stroke-width="2.685" stroke-linecap="round" stroke-linejoin="round"/>
<path d="M756.428 735.437C756.075 740.141 754.335 744.635 751.427 748.35C748.52 752.065 744.577 754.835 740.095 756.309C735.614 757.783 730.796 757.895 726.252 756.631C721.707 755.366 717.639 752.783 714.562 749.207C711.485 745.631 709.538 741.223 708.967 736.54C708.395 731.857 709.225 727.11 711.352 722.899C713.478 718.688 716.806 715.202 720.913 712.882C725.021 710.562 729.724 709.513 734.428 709.866C740.736 710.34 746.598 713.3 750.723 718.096C754.849 722.891 756.901 729.129 756.428 735.437V735.437Z" stroke="#171717" stroke-width="2.685" stroke-linecap="round" stroke-linejoin="round"/>
<path d="M237.822 330.204L245.949 327.984" stroke="#171717" stroke-width="2.685" stroke-linecap="round" stroke-linejoin="round"/>
<path d="M257.047 325.3C258.309 325.3 286.61 318.981 286.61 318.981" stroke="#171717" stroke-width="2.685" stroke-linecap="round" stroke-linejoin="round"/>
<path d="M673.638 295.164L682.051 295.557" stroke="#171717" stroke-width="2.685" stroke-linecap="round" stroke-linejoin="round"/>
<path d="M693.436 296.426C694.636 296.819 723.509 299.526 723.509 299.526" stroke="#171717" stroke-width="2.685" stroke-linecap="round" stroke-linejoin="round"/>
<path d="M316.432 799.565L353.495 791.555" stroke="#171717" stroke-width="2.685" stroke-linecap="round" stroke-linejoin="round"/>
<path d="M637.801 770.504L676.931 773.449" stroke="#171717" stroke-width="2.685" stroke-linecap="round" stroke-linejoin="round"/>
<path d="M191.54 439.567C191.539 442.044 190.804 444.465 189.428 446.525C188.051 448.584 186.095 450.189 183.806 451.136C181.517 452.084 178.999 452.332 176.57 451.848C174.14 451.365 171.909 450.172 170.157 448.42C168.406 446.669 167.213 444.437 166.729 442.008C166.246 439.578 166.493 437.06 167.441 434.771C168.389 432.483 169.993 430.526 172.053 429.15C174.112 427.773 176.533 427.038 179.01 427.037C180.656 427.036 182.286 427.36 183.806 427.99C185.327 428.619 186.708 429.542 187.872 430.706C189.035 431.869 189.958 433.251 190.588 434.771C191.217 436.292 191.541 437.921 191.54 439.567V439.567Z" stroke="#171717" stroke-width="2.685" stroke-linecap="round" stroke-linejoin="round"/>
<path d="M185.463 481.41C189.027 481.41 191.916 478.521 191.916 474.957C191.916 471.393 189.027 468.504 185.463 468.504C181.899 468.504 179.01 471.393 179.01 474.957C179.01 478.521 181.899 481.41 185.463 481.41Z" stroke="#171717" stroke-width="2.685" stroke-linecap="round" stroke-linejoin="round"/>
<path d="M577.18 463.25C581.501 463.25 585.003 459.748 585.003 455.427C585.003 451.106 581.501 447.604 577.18 447.604C572.86 447.604 569.357 451.106 569.357 455.427C569.357 459.748 572.86 463.25 577.18 463.25Z" stroke="#171717" stroke-width="2.685" stroke-linecap="round" stroke-linejoin="round"/>
<path d="M409.083 752.884C410.919 750.957 412.245 748.602 412.939 746.032C413.633 743.463 413.674 740.76 413.058 738.17C412.442 735.581 411.189 733.186 409.412 731.205C407.635 729.223 405.39 727.717 402.883 726.823" stroke="#171717" stroke-width="2.685" stroke-linecap="round" stroke-linejoin="round"/>
<path d="M402.9 748.511C403.891 747.634 404.642 746.519 405.081 745.27C405.52 744.022 405.633 742.682 405.409 741.378C405.184 740.073 404.631 738.848 403.8 737.818C402.969 736.788 401.888 735.987 400.661 735.492" stroke="#171717" stroke-width="2.685" stroke-linecap="round" stroke-linejoin="round"/>
<path d="M265.027 773.272L247.178 776.344L244.571 761.193L262.42 758.121L263.527 764.555L265.027 773.272Z" stroke="#171717" stroke-width="2.685" stroke-linecap="round" stroke-linejoin="round"/>
<path d="M272.175 756.443L274.603 770.556L263.527 764.555L271.665 756.584" stroke="#171717" stroke-width="2.685" stroke-linecap="round" stroke-linejoin="round"/>
<path d="M590.826 729.887L572.732 729.098L573.402 713.739L591.496 714.528L591.212 721.05L590.826 729.887Z" stroke="#171717" stroke-width="2.685" stroke-linecap="round" stroke-linejoin="round"/>
<path d="M601.385 714.959L600.762 729.266L591.213 721.05L600.857 714.989" stroke="#171717" stroke-width="2.685" stroke-linecap="round" stroke-linejoin="round"/>
<path d="M395.347 746.531C395.842 746.093 396.217 745.535 396.437 744.911C396.656 744.287 396.712 743.617 396.6 742.965C396.488 742.313 396.211 741.7 395.796 741.185C395.38 740.67 394.84 740.27 394.227 740.022" stroke="#171717" stroke-width="2.685" stroke-linecap="round" stroke-linejoin="round"/>
<path d="M737.039 747.454C739.211 745.915 740.963 743.856 742.136 741.467C743.309 739.077 743.867 736.433 743.757 733.773C743.648 731.113 742.876 728.523 741.51 726.238C740.145 723.953 738.23 722.045 735.939 720.688" stroke="#171717" stroke-width="2.685" stroke-linecap="round" stroke-linejoin="round"/>
<path d="M731.81 741.979C732.951 741.309 733.902 740.358 734.572 739.217C735.243 738.076 735.61 736.783 735.64 735.46C735.67 734.136 735.362 732.828 734.744 731.657C734.126 730.487 733.219 729.494 732.11 728.772" stroke="#171717" stroke-width="2.685" stroke-linecap="round" stroke-linejoin="round"/>
<path d="M724.775 738.589C725.345 738.254 725.82 737.778 726.155 737.208C726.489 736.638 726.673 735.991 726.687 735.33C726.702 734.669 726.548 734.015 726.239 733.43C725.93 732.846 725.477 732.35 724.922 731.989" stroke="#171717" stroke-width="2.685" stroke-linecap="round" stroke-linejoin="round"/>
<path d="M90.9322 515.977C78.1872 544.94 69.4652 576.012 68.7082 607.647C68.4292 619.306 69.3772 631.488 75.2912 641.541C81.2052 651.594 93.2912 658.806 104.564 655.83C115.837 652.854 122.604 637.201 114.864 628.476C107.551 620.233 92.6232 623.559 86.6132 632.795C80.6032 642.031 81.7962 654.363 85.9652 664.564C90.1342 674.765 96.9062 683.669 101.983 693.45C107.06 703.231 110.441 714.726 107.135 725.238C103.829 735.75 91.7272 743.885 81.5422 739.68" stroke="#171717" stroke-width="2.685" stroke-linecap="round" stroke-linejoin="round"/>
<path d="M897.381 412.2L916.393 506.779C918.331 516.421 920.279 526.229 919.373 536.022C918.467 545.815 914.28 555.77 906.2 561.376C898.12 566.982 885.811 566.862 879.295 559.495C872.779 552.128 875.679 538.072 885.182 535.54C899.568 537.162 896.082 579.963 883.537 598.14C877.946 606.24 870.318 612.833 865.193 621.24C860.068 629.647 857.958 641.15 863.93 648.973C869.902 656.796 885.445 655.3 886.881 645.564" stroke="#171717" stroke-width="2.685" stroke-linecap="round" stroke-linejoin="round"/>
<path d="M216.733 279.57L197.752 260.644" stroke="#171717" stroke-width="2.685" stroke-linecap="round" stroke-linejoin="round"/>
<path d="M197.824 281.075L214.724 261.445" stroke="#171717" stroke-width="2.685" stroke-linecap="round" stroke-linejoin="round"/>
<path d="M259.15 245.7L273.05 229.273" stroke="#171717" stroke-width="2.685" stroke-linecap="round" stroke-linejoin="round"/>
<path d="M274.41 241.758L259.23 231.676" stroke="#171717" stroke-width="2.685" stroke-linecap="round" stroke-linejoin="round"/>
<path d="M390.716 244.279L364.16 217.765" stroke="#171717" stroke-width="2.685" stroke-linecap="round" stroke-linejoin="round"/>
<path d="M470.452 229.267L469.036 131.975" stroke="#171717" stroke-width="2.685" stroke-linecap="round" stroke-linejoin="round"/>
<path d="M552.189 233.042C554.056 222.98 558.902 213.71 566.099 206.435" stroke="#171717" stroke-width="2.685" stroke-linecap="round" stroke-linejoin="round"/>
<path d="M780.3 232.327L769.543 217.966" stroke="#171717" stroke-width="2.685" stroke-linecap="round" stroke-linejoin="round"/>
<path d="M765.816 230.5L779.716 220.393" stroke="#171717" stroke-width="2.685" stroke-linecap="round" stroke-linejoin="round"/>
<path d="M732.988 255.806L721.616 245.7" stroke="#171717" stroke-width="2.685" stroke-linecap="round" stroke-linejoin="round"/>
<path d="M731.724 245.7L719.089 257.07" stroke="#171717" stroke-width="2.685" stroke-linecap="round" stroke-linejoin="round"/>
<path d="M893.461 624.768L906.097 615.923" stroke="#171717" stroke-width="2.685" stroke-linecap="round" stroke-linejoin="round"/>
<path d="M902.306 627.295L895.988 614.66" stroke="#171717" stroke-width="2.685" stroke-linecap="round" stroke-linejoin="round"/>
<path d="M875.771 516.1L884.616 513.573" stroke="#171717" stroke-width="2.685" stroke-linecap="round" stroke-linejoin="round"/>
<path d="M881.034 521.113L878.455 508.488" stroke="#171717" stroke-width="2.685" stroke-linecap="round" stroke-linejoin="round"/>
<path d="M99.748 600.57L108.548 591.676" stroke="#171717" stroke-width="2.685" stroke-linecap="round" stroke-linejoin="round"/>
<path d="M107.661 600.655L100.042 590.575" stroke="#171717" stroke-width="2.685" stroke-linecap="round" stroke-linejoin="round"/>
<path d="M80.9743 704.394C79.4608 703.444 77.7118 702.936 75.9249 702.928C74.138 702.92 72.3844 703.411 70.8623 704.348" stroke="#171717" stroke-width="2.685" stroke-linecap="round" stroke-linejoin="round"/>
<path d="M75.6388 698.034L74.4658 714.467" stroke="#171717" stroke-width="2.685" stroke-linecap="round" stroke-linejoin="round"/>
<path d="M689.163 217.945L694.925 222.825C695.1 222.972 695.224 223.169 695.283 223.389C695.342 223.61 695.331 223.843 695.253 224.057C695.175 224.271 695.034 224.456 694.847 224.587C694.661 224.719 694.438 224.789 694.21 224.79L686.66 224.829C686.44 224.83 686.225 224.897 686.043 225.02C685.86 225.144 685.718 225.318 685.634 225.522L682.774 232.509C682.688 232.72 682.539 232.9 682.348 233.024C682.157 233.147 681.932 233.21 681.704 233.202C681.476 233.194 681.256 233.116 681.074 232.98C680.891 232.843 680.755 232.654 680.683 232.437L678.313 225.268C678.245 225.059 678.115 224.875 677.942 224.739C677.768 224.603 677.558 224.522 677.338 224.506L669.808 223.945C669.581 223.929 669.364 223.843 669.187 223.699C669.01 223.555 668.882 223.361 668.819 223.141C668.756 222.922 668.762 222.689 668.835 222.473C668.909 222.258 669.047 222.07 669.231 221.935L675.316 217.465C675.494 217.335 675.63 217.155 675.705 216.948C675.781 216.741 675.793 216.516 675.74 216.302L673.946 208.967C673.892 208.746 673.907 208.513 673.99 208.3C674.072 208.088 674.217 207.906 674.406 207.778C674.595 207.651 674.818 207.584 675.046 207.588C675.274 207.591 675.495 207.664 675.68 207.797L681.811 212.204C681.99 212.333 682.203 212.405 682.423 212.413C682.644 212.421 682.861 212.363 683.048 212.247L689.47 208.275C689.664 208.156 689.89 208.098 690.117 208.111C690.345 208.123 690.563 208.205 690.742 208.345C690.922 208.485 691.054 208.677 691.121 208.895C691.188 209.112 691.188 209.345 691.118 209.562L688.818 216.755C688.752 216.965 688.749 217.191 688.811 217.402C688.872 217.614 688.995 217.803 689.163 217.945Z" fill="#171717"/>
<path d="M62.9 492.013L68.3659 498.4C68.5307 498.593 68.6325 498.831 68.6575 499.084C68.6826 499.336 68.6298 499.59 68.5062 499.812C68.3826 500.033 68.1941 500.212 67.9661 500.323C67.7382 500.434 67.4816 500.473 67.231 500.434L58.9249 499.134C58.6826 499.096 58.4344 499.131 58.2118 499.234C57.9891 499.337 57.802 499.504 57.674 499.713L53.2879 506.886C53.1558 507.103 52.9602 507.275 52.7274 507.377C52.4946 507.48 52.236 507.508 51.9865 507.459C51.7369 507.41 51.5085 507.285 51.3321 507.102C51.1557 506.919 51.0397 506.686 51 506.435L49.669 498.135C49.6304 497.893 49.5208 497.667 49.354 497.487C49.1872 497.307 48.9707 497.181 48.7319 497.124L40.555 495.169C40.3082 495.11 40.0855 494.976 39.9168 494.787C39.7481 494.597 39.6415 494.361 39.6114 494.109C39.5812 493.857 39.6289 493.602 39.7481 493.378C39.8672 493.154 40.0522 492.972 40.278 492.856L47.762 489.026C47.9795 488.914 48.1593 488.741 48.2786 488.527C48.398 488.314 48.4517 488.07 48.433 487.826L47.766 479.445C47.7457 479.192 47.8035 478.939 47.9315 478.72C48.0595 478.501 48.2515 478.326 48.4817 478.22C48.712 478.113 48.9693 478.08 49.2191 478.124C49.469 478.168 49.6992 478.288 49.879 478.467L55.8349 484.401C56.0089 484.574 56.2302 484.692 56.471 484.739C56.7118 484.787 56.9613 484.762 57.188 484.668L64.952 481.443C65.1863 481.345 65.4449 481.322 65.6928 481.376C65.9408 481.43 66.1663 481.559 66.3388 481.745C66.5113 481.931 66.6226 482.166 66.6577 482.417C66.6928 482.669 66.6499 482.925 66.535 483.151L62.735 490.651C62.6256 490.869 62.583 491.115 62.6123 491.357C62.6417 491.599 62.7417 491.827 62.9 492.013V492.013Z" fill="#171717"/>
<path d="M239.839 580.915C241.399 588.874 248.974 594.545 256.876 596.369C264.778 598.193 273.027 596.934 281.038 595.669L316.575 590.057C322.775 589.078 329.14 588.042 334.556 584.868C339.972 581.694 344.299 575.85 343.801 569.593" stroke="#171717" stroke-width="2.685" stroke-linecap="round" stroke-linejoin="round"/>
<path d="M330.885 585.6L330.367 571.076" stroke="#171717" stroke-width="2.685" stroke-linecap="round" stroke-linejoin="round"/>
<path d="M314.207 589.7L313.57 578.328" stroke="#171717" stroke-width="2.685" stroke-linecap="round" stroke-linejoin="round"/>
<path d="M297.682 591.6L297.416 581.182" stroke="#171717" stroke-width="2.685" stroke-linecap="round" stroke-linejoin="round"/>
<path d="M277.193 595.08L276.808 575.174" stroke="#171717" stroke-width="2.685" stroke-linecap="round" stroke-linejoin="round"/>
<path d="M257.57 595.706L257.589 596.92C256.821 586.067 257.585 575.16 259.858 564.52" stroke="#171717" stroke-width="2.685" stroke-linecap="round" stroke-linejoin="round"/>
<path d="M243 586.285C243.087 586.348 243.158 586.43 243.207 586.525C243.256 586.62 243.282 586.725 243.283 586.832C243.284 586.939 243.26 587.045 243.212 587.141C243.165 587.237 243.096 587.321 243.01 587.385C243.379 577.159 247.001 567.318 253.35 559.294" stroke="#171717" stroke-width="2.685" stroke-linecap="round" stroke-linejoin="round"/>
<path d="M546.224 627.876C553.094 634.983 564.362 636.122 573.905 633.548C583.448 630.974 591.805 625.32 600.3 620.267C608.795 615.214 618.016 610.575 627.9 610.408C638.3 610.232 648.2 615.079 656.536 621.299C664.872 627.519 672.049 635.152 680.095 641.745C693.495 652.726 711.111 660.98 727.88 656.622C740.009 653.469 749.494 644.358 759.35 636.622C769.206 628.886 781.339 621.956 793.637 624.369" stroke="#171717" stroke-width="2.685" stroke-linecap="round" stroke-linejoin="round"/>
<path d="M543.539 663.677C550.408 670.784 561.677 671.923 571.22 669.349C580.763 666.775 589.12 661.121 597.615 656.068C606.11 651.015 615.331 646.376 625.215 646.209C635.615 646.034 645.515 650.881 653.85 657.1C662.185 663.319 669.364 670.953 677.41 677.546C690.81 688.527 708.426 696.781 725.195 692.423C737.324 689.27 746.809 680.159 756.665 672.423C766.521 664.687 778.654 657.757 790.952 660.17" stroke="#171717" stroke-width="2.685" stroke-linecap="round" stroke-linejoin="round"/>
<path d="M401.958 615.311L408.271 607.094" stroke="#171717" stroke-width="2.685" stroke-linecap="round" stroke-linejoin="round"/>
<path d="M325.507 700.539L318.575 697.339" stroke="#171717" stroke-width="2.685" stroke-linecap="round" stroke-linejoin="round"/>
<path d="M284.421 647.513L290.214 639.229C290.321 639.304 290.405 639.407 290.458 639.527C290.51 639.646 290.529 639.778 290.512 639.908C290.495 640.037 290.443 640.16 290.361 640.262C290.28 640.364 290.172 640.442 290.049 640.487" stroke="#171717" stroke-width="2.685" stroke-linecap="round" stroke-linejoin="round"/>
<path d="M248.41 696.16L241.46 691.106" stroke="#171717" stroke-width="2.685" stroke-linecap="round" stroke-linejoin="round"/>
<path d="M212.4 631.718C213.841 628.176 216.249 625.111 219.349 622.873" stroke="#171717" stroke-width="2.685" stroke-linecap="round" stroke-linejoin="round"/>
<path d="M424.069 689.774L414.608 686.568" stroke="#171717" stroke-width="2.685" stroke-linecap="round" stroke-linejoin="round"/>
<path d="M278.1 731.54L283.155 722.063" stroke="#171717" stroke-width="2.685" stroke-linecap="round" stroke-linejoin="round"/>
<path fill-rule="evenodd" clip-rule="evenodd" d="M612.992 406.898C610.447 409.747 608.759 413.256 608.122 417.022C607.601 420.806 608.16 424.659 609.733 428.139C611.305 431.619 613.829 434.584 617.013 436.693C613.468 438.954 610.83 442.387 609.557 446.394C608.284 450.401 608.458 454.728 610.049 458.62C611.639 462.511 614.545 465.722 618.26 467.691C621.975 469.659 626.262 470.262 630.376 469.393L630.743 469.241C630.093 467.652 629.499 466.052 628.962 464.441C624.023 449.429 622.369 433.53 624.111 417.822C625.854 402.114 630.953 386.964 639.062 373.399L639.339 373.292C643.215 383.362 648.738 392.717 655.682 400.975C661.715 408.187 668.771 414.477 676.626 419.645C688.062 427.098 700.936 432.065 714.414 434.225C709.197 464.888 707.817 496.081 710.306 527.084L710.261 528.203C711.063 528.24 711.87 528.273 712.677 528.307C713.469 528.34 714.261 528.374 715.05 528.409C715.56 528.437 716.079 528.463 716.607 528.489C721.297 528.785 726.3 529.653 728.958 533.412C730.33 535.362 730.786 537.722 731.245 540.094C731.614 542.002 731.984 543.919 732.834 545.638C735.215 550.447 740.701 552.694 745.74 554.538C752.596 557.053 759.783 559.72 767.015 562.414L767.274 561.714C764.268 528.719 763.64 495.55 765.395 462.464C765.542 459.704 765.705 456.942 765.869 454.179C766.692 440.261 767.517 426.32 766.218 412.459C764.661 395.847 759.828 379.092 749.383 366.079C740.249 354.685 727.342 346.827 713.783 341.403C699.167 335.549 683.235 332.274 667.599 334.216C651.963 336.158 636.697 343.694 627.305 356.341C617.913 368.988 615.282 386.922 622.505 400.922C618.834 401.978 615.536 404.049 612.992 406.898ZM705.846 345.587C705.121 345.433 704.408 345.896 704.254 346.621C704.1 347.347 704.563 348.059 705.289 348.213C720.218 351.38 733.562 359.686 742.995 371.683C752.429 383.679 757.353 398.606 756.909 413.861C756.888 414.602 757.471 415.22 758.212 415.242C758.953 415.263 759.572 414.68 759.593 413.939C760.055 398.056 754.928 382.514 745.106 370.023C735.284 357.532 721.39 348.884 705.846 345.587Z" fill="#171717"/>
<path fill-rule="evenodd" clip-rule="evenodd" d="M591.7 444.239C586.679 433.539 583.073 422.231 580.975 410.6C590.4 399.318 595.887 385.74 595.893 371.143C595.893 351.738 586.191 334.142 570.456 321.325C554.354 308.177 531.933 300.033 507.133 300.033C458.103 300.033 418.364 331.87 418.364 371.143C418.364 410.416 458.103 442.253 507.133 442.253C527.736 442.253 546.711 436.623 561.774 427.189C563.188 426.303 564.558 425.39 565.9 424.433C574.5 431.032 583.1 437.634 591.7 444.239ZM475.551 364.797C477.009 361.492 482.209 360.747 484.536 363.511L485.149 364.408C486.868 367.585 484.269 372.149 480.66 372.297C477.051 372.445 474.093 368.102 475.551 364.797ZM511.388 363.511C509.061 360.747 503.861 361.492 502.403 364.797C500.945 368.102 503.903 372.445 507.512 372.297C511.12 372.149 513.72 367.585 512.001 364.408L511.388 363.511ZM529.252 364.797C530.71 361.492 535.91 360.747 538.237 363.511L538.849 364.408C540.568 367.585 537.97 372.149 534.361 372.297C530.752 372.445 527.794 368.102 529.252 364.797Z" fill="#171717"/>
<g opacity="0.1">
<path d="M246.253 422.879C242.427 427.179 242.369 433.571 242.098 439.079C241.81 445.529 242.052 451.993 242.819 458.405C243.492 464.468 244.487 470.492 245.798 476.451C247.114 482.351 247.578 489.751 254.014 491.963C256.231 492.724 258.323 491.4 259.572 489.701C262.936 485.124 259.472 478.894 258.293 473.962C256.903 468.233 255.861 462.426 255.174 456.572C254.547 451.079 254.158 445.524 253.908 440.001C253.666 434.655 254.477 428.256 251.553 423.559C250.465 421.811 247.744 421.2 246.253 422.876V422.879Z" fill="#171717"/>
</g>
<g opacity="0.1">
<path d="M254.248 556.7C246.73 551.977 240.416 560.761 238.709 567.152C237.52 571.601 237.925 576.231 237.291 580.744C236.683 585.074 233.572 586.382 229.719 587.462C220.319 590.096 211.219 592.17 202.328 596.386C197.973 598.449 193.782 600.844 189.793 603.549C185.084 606.749 179.672 609.789 179.693 616.102C179.702 618.796 181.749 622.081 184.614 622.566C190.527 623.566 193.33 620.398 197.783 617.218C201.706 614.417 205.838 611.922 210.142 609.755C218.58 605.505 227.672 604.164 236.384 600.835C245.477 597.36 250.899 590.757 251.611 580.92C251.904 576.873 250.593 572.671 251.543 568.692C251.978 567.258 252.609 565.89 253.418 564.63C254.025 563.499 254.713 562.413 255.475 561.381C255.919 560.594 256.039 559.665 255.81 558.792C255.581 557.918 255.021 557.168 254.248 556.7V556.7Z" fill="#171717"/>
</g>
<g opacity="0.1">
<path d="M641.557 377.9C635.947 381.537 633.181 388.367 630.157 394.157C627.072 400.058 624.939 406.409 623.835 412.976C621.46 426.669 622.346 440.729 626.422 454.015C630.498 467.302 637.648 479.441 647.293 489.447C656.049 498.529 670.086 507.079 665.2 521.503C662.865 528.394 672.94 532.108 676.594 526.303C683.935 514.648 676.609 500.281 668.357 491.417C663.534 486.236 658.073 481.705 653.598 476.194C649.5 471.105 646.022 465.548 643.237 459.638C637.513 447.715 634.848 434.555 635.484 421.345C635.831 414.531 637.247 407.966 638.604 401.311C639.288 397.537 640.38 393.849 641.859 390.311C643.33 386.984 644.859 384.487 645.413 380.858C645.727 378.791 643.675 376.521 641.557 377.893V377.9Z" fill="#171717"/>
</g>
<g opacity="0.1">
<path d="M634.658 527.036C631.5 533.623 627.585 537.802 620.319 539.696C612.895 541.63 605.072 541.726 597.56 543.311C582.161 546.502 567.54 552.686 554.524 561.511C546.578 567.011 553.937 580.035 562.19 574.625C576.765 564.855 593.308 558.407 610.65 555.734C618.85 554.472 627.319 553.372 634.282 548.478C640.482 544.117 645.833 535.772 642.798 528.1C641.541 524.923 636.487 523.223 634.658 527.036V527.036Z" fill="#171717"/>
</g>
</g>
<defs>
<linearGradient id="paint0_linear_248_1703" x1="666.627" y1="525.462" x2="666.627" y2="794.154" gradientUnits="userSpaceOnUse">
<stop stop-color="#4A9FFF"/>
<stop offset="1" stop-color="#2A67F7"/>
</linearGradient>
<linearGradient id="paint1_linear_248_1703" x1="681.358" y1="525.768" x2="681.358" y2="572.328" gradientUnits="userSpaceOnUse">
<stop stop-color="#4A9FFF"/>
<stop offset="1" stop-color="#2A67F7"/>
</linearGradient>
<linearGradient id="paint2_linear_248_1703" x1="587.481" y1="698.638" x2="587.481" y2="746.333" gradientUnits="userSpaceOnUse">
<stop stop-color="#4A9FFF"/>
<stop offset="1" stop-color="#2A67F7"/>
</linearGradient>
<linearGradient id="paint3_linear_248_1703" x1="258.216" y1="744.36" x2="258.216" y2="792.058" gradientUnits="userSpaceOnUse">
<stop stop-color="#4A9FFF"/>
<stop offset="1" stop-color="#2A67F7"/>
</linearGradient>
<linearGradient id="paint4_linear_248_1703" x1="277.533" y1="293.513" x2="277.533" y2="609.969" gradientUnits="userSpaceOnUse">
<stop stop-color="#4A9FFF"/>
<stop offset="1" stop-color="#2A67F7"/>
</linearGradient>
<clipPath id="clip0_248_1703">
<rect width="882" height="700" fill="white" transform="translate(39 130)"/>
</clipPath>
</defs>
</svg>
